<?xml version="1.0" standalone="no"?>
<!DOCTYPE svg PUBLIC "-//W3C//DTD SVG 20010904//EN"
 "http://www.w3.org/TR/2001/REC-SVG-20010904/DTD/svg10.dtd">
<svg version="1.0" xmlns="http://www.w3.org/2000/svg"
 width="453.000000pt" height="453.000000pt" viewBox="0 0 453.000000 453.000000"
 preserveAspectRatio="xMidYMid meet">
<metadata>
Created by potrace 1.11, written by Peter Selinger 2001-2013
</metadata>
<g transform="translate(0.000000,453.000000) scale(0.100000,-0.100000)"
fill="#000000" stroke="none">
<path d="M2136 4113 c-40 -123 -147 -399 -198 -512 -92 -203 -139 -302 -208
-441 -87 -176 -223 -438 -254 -490 -12 -20 -26 -45 -32 -55 -11 -19 -26 -20
-509 -21 -592 -2 -538 12 -540 -141 -1 -89 1 -99 21 -120 l23 -23 416 0 c228
0 415 -3 415 -7 -1 -5 -16 -33 -34 -63 l-32 -55 -375 0 c-206 -1 -384 -4 -396
-8 -30 -11 -40 -48 -38 -151 2 -132 -18 -125 336 -125 160 0 293 -1 295 -4 4
-4 -37 -77 -124 -218 -26 -41 -73 -118 -105 -170 -52 -84 -162 -257 -307 -484
-77 -120 -211 -323 -345 -522 -66 -97 -124 -184 -129 -191 -10 -17 -12 -18 87
45 166 106 420 207 612 244 188 36 466 43 612 15 11 -3 38 -7 59 -10 229 -36
546 -156 746 -283 21 -12 39 -23 41 -23 2 0 4 350 5 777 0 428 1 787 1 799 1
20 7 21 86 22 l85 1 0 -799 c0 -440 2 -800 4 -800 2 0 35 19 72 42 185 112
494 227 709 263 404 68 764 18 1120 -156 66 -32 144 -75 174 -94 30 -20 63
-40 72 -46 10 -5 -78 134 -195 308 -238 357 -321 486 -531 823 -188 301 -274
445 -275 455 0 6 103 9 293 8 369 -3 342 -18 338 192 0 35 -6 55 -21 69 -20
20 -32 21 -402 21 l-382 0 -33 55 c-18 30 -33 58 -33 63 0 4 186 7 414 7 379
0 416 1 435 18 18 15 21 29 23 112 1 113 -5 138 -39 146 -14 4 -245 7 -513 7
l-488 0 -48 91 c-27 50 -70 132 -96 181 -230 431 -446 913 -554 1240 l-43 130
-1 -797 c0 -439 -3 -799 -7 -799 -40 -6 -155 -3 -160 4 -3 5 -5 364 -5 798 0
434 -1 789 -2 789 -1 0 -19 -53 -40 -117z"/>
</g>
</svg>
