<?xml version="1.0" standalone="no"?>
<!DOCTYPE svg PUBLIC "-//W3C//DTD SVG 20010904//EN"
 "http://www.w3.org/TR/2001/REC-SVG-20010904/DTD/svg10.dtd">
<svg version="1.0" xmlns="http://www.w3.org/2000/svg"
 width="2048.000000pt" height="1536.000000pt" viewBox="0 0 2048.000000 1536.000000"
 preserveAspectRatio="xMidYMid meet">
<metadata>
Created by potrace 1.15, written by Peter Selinger 2001-2017
</metadata>
<g transform="translate(0.000000,1536.000000) scale(0.100000,-0.100000)"
fill="#000000" stroke="none">
<path d="M0 12944 l0 -2415 23 6 c12 4 26 11 31 16 6 5 22 9 37 9 15 0 40 7
56 14 31 16 191 66 211 66 6 0 12 4 12 9 0 5 33 19 72 32 102 33 198 84 198
107 0 6 5 12 12 12 6 0 19 6 27 13 9 7 50 26 91 42 41 15 84 34 95 40 11 7 56
25 100 40 44 15 98 35 121 46 22 10 46 19 52 19 13 0 104 42 112 51 3 3 29 17
58 30 28 13 52 27 52 31 0 5 7 8 17 8 9 0 40 11 69 25 29 14 75 28 101 32 26
3 53 9 58 12 6 4 25 8 43 10 18 1 60 20 92 42 32 21 66 39 74 39 8 0 19 6 23
13 7 11 25 20 123 60 14 5 41 18 61 28 20 11 43 19 52 19 19 0 125 48 132 60
3 6 27 20 53 33 102 52 167 89 170 98 2 5 15 9 28 9 13 0 24 6 24 13 1 22 90
75 230 134 57 24 85 38 90 43 3 3 30 18 60 33 30 16 62 32 70 37 8 4 42 21 75
37 33 15 65 33 72 40 7 6 26 14 42 18 16 3 35 13 41 20 12 14 110 65 127 65 4
1 26 9 48 20 22 11 52 19 67 20 15 0 31 6 35 13 4 7 33 19 62 26 61 15 137 47
145 60 3 5 18 12 33 15 16 4 46 15 68 25 22 10 69 28 105 41 36 12 80 31 98
41 18 10 41 19 52 19 10 0 62 23 116 50 54 28 123 59 154 71 30 11 84 36 120
54 115 59 303 152 401 199 31 14 63 26 72 26 8 0 17 4 19 9 2 5 55 35 118 67
63 32 117 60 120 63 3 3 58 33 124 66 112 57 166 99 166 130 0 8 14 22 30 32
16 9 30 21 30 25 0 4 6 8 13 8 8 0 33 18 58 40 51 45 125 69 234 74 39 2 106
9 150 15 44 6 91 9 105 6 89 -14 130 -16 130 -5 0 12 39 10 125 -6 54 -9 74
-10 183 0 69 6 92 11 92 22 0 11 17 14 80 14 73 0 80 -2 80 -20 0 -11 6 -20
13 -20 9 0 8 -3 -2 -9 -8 -5 15 -11 64 -16 51 -4 78 -11 82 -21 3 -9 20 -14
44 -14 22 0 39 -5 39 -11 0 -8 24 -9 80 -4 76 7 80 6 80 -13 0 -13 9 -22 24
-26 13 -3 31 -9 40 -12 11 -4 16 -1 16 10 0 12 10 16 40 16 29 0 40 4 40 15 0
11 11 15 40 15 29 0 40 4 40 15 0 8 7 15 15 15 11 0 15 11 15 40 0 29 -4 40
-15 40 -11 0 -15 11 -15 40 l0 40 40 0 40 0 0 40 0 40 40 0 40 0 0 80 0 80 40
0 40 0 0 40 0 40 40 0 c36 0 40 3 40 25 0 23 4 25 40 25 29 0 40 4 40 15 0 11
-11 15 -40 15 l-40 0 0 80 c0 73 -2 80 -20 80 -17 0 -20 7 -20 50 0 39 4 53
20 62 11 7 20 21 20 30 0 13 8 18 30 18 l30 0 0 80 0 80 30 0 c28 0 30 2 30
40 l0 40 40 0 40 0 0 40 c0 33 3 40 20 40 17 0 20 7 20 40 l0 40 40 0 c35 0
40 3 40 23 0 12 9 28 20 35 11 7 20 18 20 26 0 7 7 19 16 27 13 10 17 10 24 0
6 -11 16 -7 44 15 32 25 34 29 16 32 -24 4 -26 15 -4 33 13 10 17 10 24 0 12
-20 80 37 80 67 0 19 5 22 40 22 36 0 40 3 40 25 0 25 1 25 80 25 64 0 80 3
80 15 0 11 11 15 40 15 32 0 40 4 40 19 0 17 18 19 365 26 500 10 1235 -3
1235 -21 0 -11 25 -14 115 -14 94 0 115 3 115 14 0 12 22 15 129 13 99 -2 127
1 124 11 -4 8 7 12 34 12 32 0 43 6 61 30 18 24 30 30 60 30 24 0 41 6 48 18
7 9 33 28 58 42 38 20 48 22 55 11 6 -8 16 -11 31 -6 17 5 19 9 9 15 -16 10 2
36 32 45 10 4 19 13 19 21 0 9 11 14 30 14 18 0 40 9 53 21 34 33 63 50 93 55
32 6 54 21 54 38 0 13 28 39 53 49 10 4 22 18 27 32 5 14 14 25 20 25 5 0 10
5 10 10 0 7 -1905 10 -5695 10 l-5695 0 0 -2416z"/>
<path d="M15240 15320 c0 -33 3 -40 20 -40 17 0 20 -7 20 -40 l0 -40 -40 0
-40 0 0 -80 0 -80 40 0 40 0 0 -40 0 -40 40 0 40 0 0 -40 c0 -33 -3 -40 -20
-40 -17 0 -20 -7 -20 -40 0 -33 3 -40 20 -40 19 0 20 -7 20 -240 0 -153 4
-240 10 -240 6 0 10 -33 10 -80 0 -47 -4 -80 -10 -80 -6 0 -10 -47 -10 -120 0
-113 -1 -120 -20 -120 -17 0 -20 -7 -20 -40 0 -33 -3 -40 -20 -40 -17 0 -20
-7 -20 -40 0 -33 -3 -40 -20 -40 -17 0 -20 -7 -20 -40 0 -33 -3 -40 -20 -40
-17 0 -20 -7 -20 -39 l0 -38 -80 -7 -80 -7 0 -35 0 -34 -120 0 -120 0 0 -80 0
-80 -40 0 -40 0 0 40 0 40 -120 0 -120 0 0 -120 0 -120 40 0 40 0 0 -120 c0
-100 -2 -120 -15 -120 -11 0 -15 -11 -15 -40 0 -36 -2 -40 -25 -40 -20 0 -25
-5 -25 -25 0 -22 -4 -25 -40 -25 -35 0 -40 -3 -40 -24 0 -21 -5 -24 -52 -29
-37 -3 -58 -1 -69 9 -18 16 -39 19 -39 5 0 -5 -34 -12 -77 -16 -62 -6 -78 -4
-84 8 -6 10 -22 14 -59 11 -27 -2 -49 0 -49 4 7 44 -34 58 -186 66 -232 11
-265 16 -265 37 0 15 -8 19 -40 19 -22 0 -40 5 -40 10 0 6 -47 10 -120 10 -73
0 -120 4 -120 10 0 6 -60 10 -160 10 -100 0 -160 -4 -160 -10 0 -5 -18 -10
-40 -10 -23 0 -40 5 -40 11 0 8 -24 9 -81 4 -123 -11 -399 4 -399 21 0 10 -13
14 -40 14 -29 0 -40 4 -40 15 0 11 -11 15 -40 15 -22 0 -40 5 -40 10 0 6 -18
10 -40 10 -29 0 -40 4 -40 15 0 11 -11 15 -40 15 -29 0 -40 -4 -40 -15 0 -11
-11 -15 -40 -15 -22 0 -40 -4 -40 -10 0 -5 -18 -10 -40 -10 -22 0 -40 -4 -40
-10 0 -5 -18 -10 -40 -10 -27 0 -40 -4 -40 -14 0 -9 -17 -15 -50 -18 -28 -3
-58 -12 -68 -22 -10 -9 -26 -16 -34 -16 -20 0 -35 -18 -43 -53 -4 -16 -16 -34
-26 -40 -11 -7 -19 -17 -19 -24 0 -7 -4 -13 -8 -13 -5 0 -17 -18 -28 -40 -10
-22 -25 -40 -31 -40 -7 0 -13 -9 -13 -20 0 -11 -4 -20 -9 -20 -5 0 -15 -16
-21 -36 -7 -19 -20 -40 -31 -47 -10 -6 -19 -18 -19 -26 0 -8 -10 -25 -21 -37
-12 -13 -19 -30 -16 -37 8 -21 184 -56 377 -74 30 -3 56 -9 58 -14 2 -5 25 -9
51 -9 27 0 84 -9 127 -19 44 -11 129 -25 189 -31 193 -21 480 -68 565 -94 52
-16 148 -30 345 -52 77 -8 164 -18 193 -21 28 -3 52 -9 52 -13 0 -3 21 -7 47
-9 25 -1 54 -6 63 -11 28 -15 196 -50 239 -50 22 0 43 -4 46 -10 3 -5 21 -10
38 -10 18 0 88 -9 157 -20 69 -12 157 -26 195 -31 39 -6 86 -15 106 -20 20 -5
52 -9 71 -9 19 0 61 -8 94 -19 64 -20 167 -41 202 -41 12 0 22 -4 22 -10 0 -5
16 -10 36 -10 19 0 56 -6 82 -14 26 -8 108 -21 182 -30 178 -22 255 -35 310
-51 25 -7 113 -25 195 -40 83 -14 175 -33 205 -42 30 -8 73 -13 94 -11 l40 3
14 63 c7 34 17 62 22 62 5 0 17 16 26 35 22 47 105 128 154 150 22 10 40 22
40 26 0 18 136 51 210 50 115 0 374 -22 384 -32 6 -5 46 -9 90 -9 156 -1 514
-39 566 -61 14 -6 86 -17 160 -25 74 -8 152 -17 173 -19 74 -8 148 -38 183
-74 19 -20 34 -42 35 -51 3 -58 -4 -166 -10 -170 -4 -3 -11 -23 -14 -45 -5
-33 -20 -53 -87 -117 -44 -43 -79 -78 -78 -79 2 0 19 -3 38 -5 19 -3 68 -9
108 -14 40 -6 130 -10 198 -10 127 0 315 -18 324 -30 3 -4 23 -10 45 -13 22
-2 58 -12 80 -20 22 -9 67 -16 101 -17 33 0 112 -7 175 -15 78 -11 146 -14
217 -9 67 4 102 3 102 -3 0 -7 62 -14 160 -18 88 -4 160 -11 160 -15 0 -5 19
-11 43 -15 93 -14 197 -38 197 -46 0 -5 36 -9 80 -9 44 0 80 -4 80 -9 0 -4 55
-13 123 -20 67 -6 156 -19 197 -28 69 -14 322 -55 433 -70 l47 -6 0 2147 0
2146 -2620 0 -2620 0 0 -40z m120 -2283 c0 -22 55 -75 73 -69 4 1 7 -36 7 -83
0 -47 3 -85 8 -85 4 0 7 -24 7 -54 0 -30 -3 -58 -7 -62 -5 -4 -8 -27 -8 -51 0
-30 -5 -45 -16 -50 -8 -3 -13 -12 -10 -19 14 -36 -113 -58 -230 -39 -45 7 -91
18 -102 24 -11 6 -32 11 -45 11 -18 0 -28 9 -42 40 -15 33 -22 39 -39 35 -17
-5 -18 -4 -6 5 11 9 12 13 3 17 -7 2 -13 13 -13 23 0 10 -6 21 -12 23 -10 4
-9 8 2 16 10 8 12 13 4 19 -6 4 -13 21 -16 38 -3 26 -1 31 16 30 17 -1 22 6
24 37 2 24 8 37 18 37 10 0 14 12 14 40 0 36 3 40 25 40 15 0 25 -6 25 -15 0
-9 6 -12 15 -9 8 4 15 15 15 25 0 11 14 28 33 39 17 10 37 24 44 29 7 6 21 11
33 11 11 0 20 5 20 10 0 6 33 10 80 10 77 0 80 -1 80 -23z"/>
<path d="M7624 12629 c-4 -6 -6 -88 -6 -182 0 -93 -4 -182 -8 -196 -35 -117
-30 -265 9 -305 19 -18 20 -18 54 3 29 18 36 30 47 81 13 59 11 95 -9 200 -6
30 -15 123 -21 206 -6 83 -16 163 -23 177 -13 28 -31 35 -43 16z"/>
<path d="M9417 12613 c-13 -25 -15 -58 -10 -204 4 -128 1 -210 -11 -311 -9
-75 -16 -193 -16 -262 l0 -124 38 -71 c40 -74 61 -102 135 -168 26 -23 47 -44
47 -47 0 -3 9 -15 19 -25 36 -36 53 -133 29 -162 -21 -26 -199 -68 -388 -94
-63 -8 -144 -20 -180 -25 -84 -13 -196 -28 -291 -39 -71 -9 -215 -28 -374 -51
-38 -6 -173 -22 -300 -36 -126 -14 -261 -29 -300 -34 -118 -14 -654 -71 -758
-80 -55 -5 -111 -11 -125 -14 -15 -3 -119 -13 -232 -21 -113 -9 -248 -20 -300
-26 -52 -6 -151 -15 -220 -20 -69 -5 -156 -12 -195 -15 -46 -4 -80 -1 -100 7
-40 17 -87 20 -82 5 2 -6 0 -20 -6 -31 -6 -11 -10 -58 -9 -106 2 -56 -3 -100
-13 -128 -8 -24 -15 -54 -15 -68 0 -24 56 -135 71 -141 5 -2 9 -12 9 -22 0
-10 7 -20 15 -24 8 -3 15 -12 15 -21 0 -8 3 -15 8 -15 7 0 25 -30 38 -62 5
-15 19 -18 84 -18 54 0 80 -4 83 -12 4 -10 7 -10 18 0 7 6 23 12 36 12 13 0
23 4 23 9 0 6 21 13 48 16 26 3 78 13 116 20 37 8 72 12 77 9 6 -3 28 4 50 15
22 12 50 21 62 21 34 0 251 50 262 61 5 5 30 9 56 9 26 0 49 4 51 10 4 13 119
30 268 40 69 5 126 9 128 9 1 1 2 31 1 67 -2 73 8 89 51 78 54 -13 110 -16
110 -6 0 6 9 10 20 9 26 -2 26 -23 -1 -37 -11 -6 -19 -18 -17 -27 3 -13 27
-16 157 -20 142 -3 157 -2 200 19 25 12 48 24 51 28 3 3 21 5 40 4 103 -5 148
-5 175 -1 17 3 62 10 100 16 83 13 160 33 201 52 22 11 30 22 32 47 3 32 4 32
56 32 50 0 54 -2 66 -30 7 -16 20 -30 29 -30 14 0 14 -2 1 -10 -10 -6 42 -10
157 -10 102 0 173 4 175 10 11 33 478 37 478 4 0 -13 39 -19 98 -14 12 1 22
-3 22 -8 0 -6 45 -14 100 -17 55 -4 100 -11 100 -16 0 -15 19 -10 40 11 14 14
20 33 20 65 0 57 18 59 23 3 l4 -43 1 43 c1 23 6 42 11 42 17 0 36 66 33 113
-3 41 -1 47 16 47 18 0 18 4 10 58 -5 31 -6 76 -3 100 4 25 2 42 -4 42 -5 0
-13 9 -16 20 -3 11 -15 20 -25 20 -10 0 -21 6 -23 13 -4 10 -6 10 -6 0 -1 -20
-29 -15 -41 7 -6 11 -16 20 -23 20 -30 1 -41 19 -38 66 2 52 11 64 61 84 70
28 96 93 79 196 -12 67 -11 76 14 155 34 105 36 220 7 394 -14 86 -22 192 -26
370 -6 287 -6 287 -83 285 -25 -1 -98 2 -162 6 l-117 7 -15 -30z"/>
<path d="M10702 12173 c-16 -30 -21 -65 -23 -151 -1 -46 -8 -109 -15 -140 -8
-31 -17 -101 -20 -154 -8 -117 5 -193 53 -295 30 -65 36 -73 61 -73 95 0 131
243 67 450 -23 74 -26 103 -27 220 0 128 -1 136 -22 147 -31 18 -64 16 -74 -4z"/>
<path d="M11208 12116 c-26 -13 -40 -69 -31 -126 5 -36 -1 -75 -37 -239 -28
-133 -27 -231 6 -317 44 -119 69 -154 107 -154 30 0 52 24 72 80 8 24 20 49
25 55 16 19 14 149 -3 218 -41 164 -47 210 -47 335 0 92 -4 132 -12 139 -22
17 -56 21 -80 9z"/>
<path d="M5506 11297 c-14 -11 -18 -29 -18 -102 0 -161 -2 -154 44 -197 23
-21 47 -38 55 -38 7 0 13 -4 13 -8 0 -14 48 -32 84 -32 48 0 52 34 14 108 -68
130 -149 265 -167 276 -4 3 -16 0 -25 -7z"/>
<path d="M16320 10330 c0 -6 -33 -10 -80 -10 l-80 0 0 -40 0 -40 -95 0 c-87 0
-118 -9 -80 -24 8 -3 15 -17 15 -31 0 -14 5 -25 10 -25 6 0 10 -18 10 -40 0
-30 -4 -40 -16 -40 -13 0 -15 -7 -10 -31 3 -17 6 -35 6 -40 0 -5 9 -9 20 -9
28 0 37 -58 17 -118 -8 -26 -20 -46 -26 -44 -6 1 -11 -5 -11 -13 0 -8 -5 -15
-11 -15 -8 0 -8 -5 1 -15 7 -8 23 -15 36 -15 12 0 26 -4 29 -10 3 -6 49 -10
102 -10 112 0 163 -17 163 -56 0 -13 -4 -24 -10 -24 -5 0 -19 -18 -30 -40 -18
-35 -25 -40 -55 -40 -46 0 -45 -17 3 -29 104 -28 252 -32 252 -6 0 8 5 15 12
15 9 0 9 3 0 12 -14 14 -16 62 -2 53 6 -3 10 3 10 14 0 17 6 21 30 21 17 0 30
5 30 11 0 7 15 9 43 5 81 -10 117 -18 117 -26 0 -14 87 -30 159 -30 63 0 73
-3 97 -27 l27 -27 -22 -17 c-11 -9 -21 -24 -21 -33 0 -13 -12 -16 -64 -16 -48
0 -65 -4 -70 -15 -3 -10 1 -18 12 -21 9 -3 26 -10 37 -15 11 -5 31 -11 45 -13
14 -3 25 -5 25 -6 0 -4 90 -13 130 -14 28 -1 46 -8 61 -24 19 -20 24 -21 46
-9 29 15 37 23 97 95 47 57 109 93 172 101 4 1 19 19 34 41 15 22 31 38 35 35
4 -2 17 16 29 40 12 25 29 45 37 45 9 0 14 11 14 30 0 17 9 39 23 53 13 12 32
35 42 50 9 15 24 27 31 27 8 0 14 5 14 12 0 6 20 38 45 69 25 32 45 62 45 68
0 6 9 11 20 11 17 0 20 7 20 39 0 29 -5 41 -17 44 -10 3 -5 5 11 4 19 -1 33 5
42 19 14 21 14 21 -53 22 -37 0 -88 7 -113 16 -31 11 -81 16 -157 16 -62 0
-113 4 -113 9 0 4 -69 11 -152 14 -84 3 -166 10 -182 16 -16 7 -90 13 -164 14
-95 2 -137 7 -140 15 -4 14 -82 16 -82 2 0 -5 -18 -10 -40 -10 -22 0 -40 5
-40 10 0 6 -18 10 -40 10 -33 0 -40 -3 -40 -19 0 -16 8 -20 37 -23 27 -2 39
-8 41 -20 3 -16 -8 -18 -117 -18 l-121 0 0 30 c0 28 -2 30 -40 30 -22 0 -40 5
-40 10 0 6 15 10 33 10 24 0 28 3 17 10 -20 13 -50 13 -50 0z"/>
<path d="M19960 9930 c0 -6 -27 -10 -60 -10 -33 0 -60 -4 -60 -10 0 -5 -18
-10 -40 -10 l-39 0 -3 -81 -3 -82 -45 -13 c-28 -9 -55 -11 -70 -6 -31 10 -120
3 -120 -9 0 -5 -7 -9 -16 -9 -12 0 -14 -9 -11 -42 2 -24 7 -51 12 -60 12 -30
-9 -73 -38 -76 -15 -2 -27 -7 -27 -12 0 -5 -15 -11 -32 -15 -18 -3 -54 -13
-80 -22 -46 -14 -48 -16 -48 -53 0 -22 -5 -40 -12 -42 -9 -3 -8 -10 5 -23 17
-17 19 -17 32 1 7 10 11 23 8 28 -4 5 -1 6 5 2 7 -4 12 -2 12 3 0 6 11 11 24
11 27 0 56 24 56 46 0 8 5 14 12 14 6 0 27 12 47 27 37 29 39 30 70 32 11 0
21 11 25 26 4 16 16 27 34 31 15 4 33 11 40 17 8 7 72 8 185 3 95 -4 177 -7
182 -6 6 0 34 3 63 6 36 4 58 2 69 -8 13 -10 17 -10 20 0 3 6 12 12 22 12 14
0 16 -7 13 -36 -3 -22 0 -39 8 -44 9 -6 8 -14 -4 -37 -8 -17 -13 -33 -10 -35
2 -3 5 -37 6 -77 l1 -72 -42 -41 c-35 -33 -43 -48 -46 -84 -2 -25 -13 -59 -24
-77 -11 -18 -30 -51 -41 -75 -11 -23 -70 -117 -132 -208 -62 -91 -117 -174
-123 -184 -5 -11 -13 -20 -17 -20 -5 0 -8 -7 -8 -15 0 -8 -3 -15 -7 -15 -5 0
-24 -27 -43 -60 -28 -48 -43 -63 -77 -76 -39 -15 -49 -15 -145 1 -57 9 -112
21 -123 25 -11 5 -49 11 -85 14 -36 3 -90 12 -120 20 -30 8 -57 13 -59 11 -5
-6 21 -28 52 -44 15 -8 27 -18 27 -22 0 -4 11 -10 25 -13 14 -4 23 -11 19 -17
-3 -6 3 -13 15 -16 12 -3 21 -9 21 -13 0 -10 58 -40 77 -40 7 0 16 -7 19 -15
4 -8 12 -15 19 -15 21 0 65 -66 65 -98 0 -16 -9 -37 -20 -47 -11 -10 -20 -26
-20 -35 0 -41 -24 -82 -61 -106 -36 -23 -39 -27 -34 -62 6 -43 -5 -61 -52 -86
-18 -9 -33 -20 -34 -24 -7 -66 -43 -149 -107 -246 -40 -60 -72 -118 -72 -129
0 -17 -41 -91 -72 -132 -5 -5 -35 -50 -68 -100 -32 -49 -67 -92 -76 -96 -10
-3 -67 4 -128 17 -276 55 -498 95 -502 91 -2 -2 33 -11 78 -21 151 -30 432
-84 481 -91 26 -4 50 -11 53 -16 3 -5 -3 -23 -13 -39 -84 -137 -127 -202 -137
-213 -7 -6 -21 -28 -32 -47 -10 -19 -22 -37 -25 -40 -3 -3 -26 -39 -51 -80
-61 -100 -207 -320 -213 -320 -2 0 -58 11 -122 24 -65 14 -140 29 -168 34 -27
6 -140 29 -250 52 -110 24 -229 48 -265 55 -63 13 -108 22 -410 85 -80 16
-203 42 -275 56 -71 14 -233 47 -360 74 -126 27 -354 74 -505 104 -452 91
-663 136 -668 141 -4 4 13 26 184 225 44 52 88 104 97 115 43 54 122 151 127
155 3 3 23 28 44 55 20 28 58 73 84 100 27 28 55 62 64 76 15 23 82 104 201
242 23 27 46 56 51 65 14 29 60 96 72 107 6 6 27 33 46 60 53 74 77 92 141
106 53 11 57 14 57 41 0 22 5 28 21 28 24 0 58 37 59 63 0 9 7 17 15 17 8 0
15 4 15 9 0 5 15 25 34 44 18 19 47 55 64 79 17 25 42 52 56 62 14 9 26 21 26
27 0 6 14 27 30 46 17 18 30 38 30 43 0 6 7 10 15 10 9 0 22 14 29 30 7 17 15
28 18 24 4 -3 12 4 18 16 10 18 9 30 -6 62 -15 34 -16 45 -5 89 7 28 11 52 8
55 -3 3 -28 -3 -56 -13 -51 -18 -51 -18 -51 -60 0 -24 -4 -43 -10 -43 -5 0
-10 -9 -10 -20 0 -11 -4 -20 -9 -20 -5 0 -15 -16 -22 -35 -7 -19 -17 -35 -21
-35 -4 0 -8 -13 -8 -29 0 -22 -13 -42 -51 -79 -28 -28 -64 -56 -80 -63 -16 -6
-29 -16 -29 -21 0 -6 -11 -23 -25 -40 -14 -16 -25 -35 -25 -41 0 -16 -97 -57
-133 -57 -31 0 -93 -58 -103 -97 -4 -13 -12 -23 -20 -23 -8 0 -14 -6 -14 -14
0 -8 -11 -17 -25 -20 -28 -7 -33 -32 -10 -62 20 -26 19 -53 -6 -98 -25 -48
-37 -59 -83 -86 -33 -18 -44 -19 -98 -10 -71 11 -78 15 -43 24 14 4 25 11 25
16 0 6 6 10 13 10 7 0 25 6 40 13 29 13 37 47 12 47 -8 0 -15 3 -15 8 0 9 -93
52 -115 52 -9 0 -34 -19 -56 -42 -29 -31 -39 -51 -39 -75 0 -31 -2 -33 -34
-33 -18 0 -50 7 -69 15 -45 19 -111 19 -126 2 -8 -11 -1 -23 37 -54 26 -21 56
-43 67 -48 11 -4 87 -9 169 -10 131 -1 150 -3 162 -19 11 -15 10 -23 -4 -45
-9 -14 -24 -34 -33 -43 -9 -9 -37 -43 -62 -75 -25 -32 -68 -78 -96 -103 -28
-25 -51 -50 -51 -56 0 -5 -8 -19 -18 -30 -10 -10 -28 -35 -42 -54 -30 -44
-106 -120 -119 -120 -5 0 -13 -10 -17 -22 -8 -25 -28 -47 -66 -71 -16 -10 -28
-23 -28 -30 -1 -16 -46 -67 -60 -67 -5 0 -10 -4 -10 -9 0 -13 -91 -54 -165
-75 -33 -9 -85 -28 -115 -41 -55 -24 -155 -61 -240 -88 -44 -15 -84 -30 -125
-48 -11 -5 -33 -13 -50 -18 -16 -5 -55 -19 -85 -31 -98 -37 -163 -62 -257 -96
-51 -18 -103 -40 -115 -48 -12 -9 -32 -16 -45 -16 -12 0 -25 -4 -28 -10 -3 -5
-16 -10 -28 -10 -12 0 -31 -7 -41 -15 -11 -8 -28 -15 -38 -15 -10 0 -41 -11
-70 -25 -28 -14 -58 -25 -65 -25 -7 0 -13 -5 -13 -11 0 -5 -4 -8 -9 -4 -12 7
-91 -17 -91 -27 0 -5 9 -8 19 -8 10 0 28 -8 39 -17 16 -14 18 -23 12 -40 -8
-20 -17 -23 -59 -23 -63 0 -134 27 -127 47 3 8 6 16 6 18 0 2 16 9 36 15 l36
12 -31 22 c-35 24 -39 36 -13 37 13 0 12 2 -5 9 -12 5 -31 18 -43 30 l-20 20
31 7 c18 3 35 15 41 28 6 13 21 28 34 34 25 11 31 30 13 48 -7 7 -6 30 2 76 7
37 9 70 5 74 -3 4 -82 -8 -174 -25 -169 -32 -500 -93 -604 -112 -32 -5 -84
-15 -115 -20 -238 -43 -689 -119 -863 -145 -52 -8 -115 -19 -140 -24 -93 -20
-259 -43 -277 -38 -11 3 -6 5 12 6 17 0 45 5 64 11 19 5 57 12 85 15 28 3 83
12 121 20 39 7 103 19 144 25 49 8 69 15 60 21 -8 5 -9 9 -3 9 5 0 14 -4 20
-9 5 -5 24 -7 43 -4 24 4 29 8 20 15 -10 7 -8 8 8 3 23 -6 288 38 598 100 39
8 108 22 155 31 47 9 92 18 100 21 8 3 33 7 55 9 60 4 295 56 290 64 -3 4 17
6 43 4 31 -3 41 -1 28 4 -19 8 -19 9 1 14 12 3 25 2 30 -2 11 -10 84 0 78 11
-3 4 7 8 22 8 55 -1 163 20 163 31 0 5 18 11 40 15 22 4 40 11 40 17 0 7 -12
8 -32 4 -18 -4 -89 -18 -158 -31 -69 -13 -208 -40 -310 -60 -193 -38 -663
-126 -930 -175 -613 -112 -722 -131 -980 -170 -69 -10 -242 -37 -385 -60 -800
-125 -1856 -280 -1916 -280 -21 0 -45 17 -96 68 -64 63 -211 221 -299 321 -22
24 -50 56 -63 70 -13 14 -53 61 -89 104 -36 42 -69 77 -74 77 -5 0 -3 -6 4
-14 7 -8 27 -31 43 -52 17 -20 52 -61 78 -90 27 -29 48 -55 48 -58 0 -2 16
-21 35 -41 19 -20 31 -41 28 -47 -4 -6 -3 -9 2 -5 5 3 23 -11 39 -30 139 -164
279 -313 296 -313 6 0 7 -4 4 -10 -3 -5 -27 -10 -52 -10 -61 0 -72 11 -317
320 -133 167 -124 156 -166 210 -19 25 -37 47 -41 50 -3 3 -19 23 -35 45 -16
22 -60 81 -99 130 -38 50 -74 96 -80 103 -5 7 -18 21 -27 30 -10 9 -18 20 -18
25 0 8 -11 24 -45 61 -39 43 -95 114 -95 121 0 3 -18 30 -40 60 -22 30 -40 64
-39 77 l0 23 9 -23 c10 -23 54 -82 100 -132 14 -15 30 -34 36 -41 56 -74 232
-286 263 -321 23 -23 41 -46 41 -50 0 -5 5 -8 11 -8 11 0 -14 39 -48 75 -10
11 -42 49 -72 85 -29 36 -68 83 -86 105 -58 68 -165 204 -165 209 0 2 -13 19
-29 38 -16 18 -40 46 -53 62 l-24 29 -13 -55 c-11 -44 -11 -69 -1 -126 6 -40
16 -72 21 -72 5 0 9 -9 9 -19 0 -11 8 -26 18 -33 9 -7 26 -29 36 -48 11 -19
28 -41 39 -49 10 -7 25 -29 33 -47 8 -19 21 -34 29 -34 8 0 15 -5 15 -10 0 -6
11 -22 25 -36 14 -14 25 -34 25 -44 0 -11 7 -20 15 -20 8 0 21 -12 29 -27 8
-16 26 -40 40 -55 14 -15 26 -31 26 -36 0 -4 16 -25 35 -46 19 -21 35 -42 35
-47 0 -4 20 -29 45 -56 24 -26 45 -53 45 -59 0 -6 15 -29 34 -50 19 -22 48
-55 65 -74 20 -23 29 -42 25 -55 -4 -16 -3 -17 5 -5 9 13 12 12 17 -7 4 -13
10 -21 14 -18 4 3 16 -7 26 -22 11 -15 30 -37 44 -50 20 -20 22 -26 10 -33
-12 -8 -13 -13 -3 -30 21 -32 15 -30 -22 7 -19 19 -35 37 -35 39 0 10 29 3 33
-8 2 -7 8 -10 12 -6 4 4 -10 23 -30 43 -42 39 -47 42 -39 20 4 -8 4 -15 1 -15
-5 0 -130 147 -212 251 -27 35 -59 72 -70 84 -27 28 -60 78 -57 87 1 4 -5 5
-13 2 -15 -6 0 -29 98 -153 27 -34 42 -58 35 -55 -7 2 -29 26 -48 52 -19 25
-42 53 -50 62 -53 55 -89 108 -84 126 3 12 -3 27 -16 39 -18 16 -20 16 -14 2
3 -9 10 -17 15 -17 5 0 9 -8 9 -17 0 -14 -9 -9 -35 19 -19 20 -35 41 -35 46 0
6 -4 12 -10 14 -8 3 -42 45 -142 178 -23 30 -46 58 -52 62 -14 9 0 22 14 13 6
-4 15 -17 20 -29 7 -16 9 -17 9 -4 1 9 -14 38 -31 63 -18 26 -39 56 -45 68
-10 17 -13 18 -13 5 0 -9 -6 -19 -12 -21 -10 -4 -10 -7 -1 -14 7 -5 16 -20 22
-33 7 -18 10 -20 10 -7 1 9 6 17 11 17 14 0 12 -22 -5 -44 -8 -10 -21 -16 -29
-13 -24 9 -34 -15 -27 -63 9 -55 17 -70 39 -70 12 0 13 -3 4 -12 -17 -17 -15
-35 11 -69 27 -37 52 -197 33 -214 -6 -5 -12 -18 -12 -27 -1 -13 17 -21 86
-37 48 -12 95 -21 103 -21 9 0 27 -4 41 -10 26 -9 25 -11 -66 -92 -51 -45 -99
-90 -105 -99 -17 -23 -51 -18 -378 48 -148 30 -283 57 -298 60 l-28 5 6 -103
c16 -299 32 -1010 23 -1025 -4 -5 -8 -49 -9 -98 -3 -74 -1 -89 14 -97 11 -7
24 -5 42 7 36 23 31 12 -14 -33 -38 -38 -39 -41 -34 -94 3 -30 9 -59 14 -66 6
-7 6 -12 -1 -15 -6 -2 -13 -28 -16 -57 -3 -30 -7 -58 -10 -62 -2 -5 -7 -93 -9
-196 -5 -196 -10 -246 -26 -251 -21 -8 -7 -22 15 -16 14 3 33 1 43 -4 16 -9
15 -11 -9 -17 -14 -4 -35 -2 -46 4 -21 11 -32 6 -32 -17 0 -8 6 -12 13 -9 9 3
19 -7 27 -29 8 -19 22 -42 32 -51 23 -20 68 -115 68 -142 0 -10 -6 -22 -12
-25 -7 -3 -2 -3 11 0 21 5 23 4 16 -12 -4 -11 -7 -29 -6 -41 1 -19 -5 -23 -27
-23 -19 0 -23 -3 -13 -9 11 -7 4 -18 -30 -52 -24 -24 -48 -43 -52 -41 -5 1 -5
-2 -2 -8 4 -7 -2 -14 -14 -17 -12 -3 -21 -12 -21 -20 0 -17 -24 -43 -40 -43
-6 0 -10 -10 -9 -22 4 -42 -1 -58 -16 -58 -17 0 -20 -25 -5 -35 6 -4 8 -10 5
-14 -2 -5 7 -13 20 -19 14 -7 25 -15 25 -20 0 -4 15 -16 34 -26 46 -25 54 -46
18 -46 -24 0 -234 52 -377 95 -57 16 -270 74 -425 115 -146 39 -374 100 -650
176 -129 35 -302 83 -385 105 -82 22 -170 47 -195 54 -25 7 -124 34 -220 60
-96 25 -247 66 -335 91 -262 72 -603 165 -715 194 -100 27 -507 139 -580 160
-19 6 -120 33 -225 60 -104 28 -203 54 -220 59 -16 5 -64 19 -105 31 -41 12
-93 27 -115 35 -22 7 -80 25 -130 40 -49 15 -104 31 -122 36 -22 7 -30 15 -26
25 7 18 6 18 48 -6 19 -11 57 -25 83 -32 26 -6 65 -19 87 -27 42 -18 90 -17
79 1 -4 7 5 8 26 3 19 -4 68 -8 109 -10 84 -2 112 -10 105 -30 -6 -15 25 -25
81 -25 22 0 51 -7 63 -16 19 -13 34 -13 98 -5 41 6 102 11 134 11 72 0 126 20
107 39 -8 10 -9 15 -1 18 20 7 78 53 68 54 -5 0 7 6 26 14 19 7 34 18 32 25
-1 6 2 9 8 5 13 -8 181 106 176 120 -5 18 -31 11 -28 -7 3 -17 -11 -23 -48
-19 -12 2 -12 0 -1 -7 15 -11 -3 -27 -19 -17 -6 3 -23 -4 -38 -16 l-27 -21 25
6 c24 7 24 7 5 -9 -11 -9 -28 -14 -38 -11 -10 2 -21 -2 -24 -10 -3 -8 -10 -14
-17 -14 -6 0 -29 -12 -51 -26 -26 -17 -32 -24 -17 -21 12 3 20 1 16 -4 -3 -5
-16 -9 -30 -9 -14 0 -27 -7 -31 -17 -13 -38 -23 -43 -52 -29 -33 17 -227 69
-263 70 -16 1 -28 4 -28 7 0 7 -71 29 -94 29 -10 0 -14 -4 -11 -10 3 -5 -1
-10 -9 -10 -9 0 -16 7 -16 15 0 20 -23 30 -115 50 -44 9 -114 28 -154 43 -41
14 -95 25 -120 25 -28 0 -50 6 -56 14 -6 8 -53 26 -105 40 -52 14 -115 31
-140 39 -87 25 -515 146 -542 152 -16 4 -24 11 -20 18 4 5 70 49 147 97 186
114 340 210 510 317 39 25 72 47 75 51 3 3 24 16 48 28 24 12 75 43 115 70 40
26 100 65 135 86 34 21 61 40 59 42 -4 3 -38 -16 -128 -70 -23 -13 -35 -15
-52 -7 -20 10 -21 10 -4 -3 22 -18 7 -31 -23 -22 -14 4 -20 2 -18 -6 2 -7 -6
-13 -17 -14 -13 0 -20 -6 -19 -17 1 -10 -2 -15 -7 -13 -4 3 -20 3 -34 -1 -21
-5 -23 -9 -14 -21 11 -12 8 -13 -14 -8 -21 6 -27 3 -27 -8 0 -10 -14 -20 -35
-26 -19 -5 -52 -23 -73 -39 -65 -51 -140 -81 -153 -61 -3 6 -14 -6 -23 -25
-18 -38 -34 -50 -81 -59 -16 -4 -24 -4 -18 -1 21 9 -10 32 -56 43 -39 9 -64 0
-40 -15 8 -5 8 -9 -1 -14 -7 -4 8 -6 34 -5 39 3 45 1 36 -10 -7 -9 -24 -12
-43 -9 l-32 4 34 -13 c44 -17 49 -33 14 -42 -15 -3 -30 -10 -33 -14 -6 -9
-137 -91 -146 -91 -3 0 -12 -7 -20 -15 -9 -8 -24 -15 -35 -15 -10 0 -19 -4
-19 -9 0 -5 -24 -23 -53 -40 l-53 -30 -55 15 c-29 9 -74 20 -99 26 -25 5 -74
18 -110 28 -36 11 -99 28 -140 39 -41 11 -109 30 -150 41 -41 12 -138 39 -215
61 -154 42 -300 82 -445 124 -52 14 -117 32 -145 40 -114 30 -250 67 -252 69
-6 6 18 25 57 45 25 12 72 38 105 57 33 18 68 37 78 40 9 3 17 10 17 15 0 5 5
9 11 9 6 0 36 15 67 33 31 18 77 41 102 52 25 10 50 23 55 29 13 14 40 31 85
53 19 9 43 25 53 34 20 19 178 98 216 109 14 4 25 12 24 18 -2 6 22 23 52 38
30 15 52 31 48 37 -3 6 -1 7 5 3 13 -8 61 15 108 50 17 13 36 24 43 24 7 0 9
5 5 12 -4 7 -3 8 5 4 7 -5 28 3 49 17 55 36 100 63 167 98 33 17 72 40 87 50
14 11 34 19 43 19 19 0 45 23 45 39 0 6 5 11 11 11 5 0 7 -6 3 -12 -5 -7 5 -2
22 12 16 14 48 34 72 44 23 10 39 23 35 29 -3 6 -1 7 5 3 6 -4 20 -1 31 6 23
14 84 1 421 -89 242 -65 256 -69 340 -88 36 -8 90 -22 120 -31 30 -9 141 -37
245 -64 105 -26 244 -62 310 -79 66 -17 129 -31 140 -31 18 0 17 -2 -5 -17
-14 -9 -27 -19 -30 -23 -3 -3 -17 -11 -32 -17 -16 -7 -28 -19 -28 -28 0 -9 -9
-15 -25 -15 -16 0 -25 -6 -25 -15 0 -8 -5 -15 -12 -15 -6 0 -9 -2 -6 -5 3 -3
19 2 35 12 17 10 52 31 79 47 116 69 144 89 137 99 -3 6 -1 7 5 3 6 -4 26 0
43 9 43 23 153 99 159 110 3 6 9 9 13 7 4 -1 35 16 69 38 64 41 131 54 141 28
2 -7 8 -9 13 -5 13 13 -24 36 -47 30 -10 -3 -27 1 -36 8 -12 10 -14 10 -9 2 4
-8 1 -13 -9 -13 -18 0 -63 -27 -86 -52 -9 -10 -19 -15 -22 -11 -4 3 -25 -6
-47 -21 -22 -14 -44 -26 -50 -26 -5 0 -9 -3 -7 -7 1 -5 -2 -10 -8 -12 -21 -7
-121 -65 -144 -82 -26 -20 -61 -25 -76 -10 -6 5 -44 16 -85 25 -41 8 -106 24
-145 34 -38 11 -115 32 -170 47 -55 14 -108 29 -119 32 -12 3 -16 1 -12 -6 5
-7 1 -9 -8 -5 -9 3 -14 9 -11 13 6 11 -293 83 -307 75 -7 -4 -8 -3 -4 4 4 8 0
12 -12 12 -10 0 -38 6 -63 14 -24 8 -84 24 -134 35 -199 47 -419 107 -422 116
-1 6 25 26 59 45 157 88 216 121 248 137 19 10 38 22 42 27 7 10 64 -1 208
-40 47 -12 144 -37 215 -54 146 -34 341 -83 520 -130 66 -17 138 -35 160 -40
22 -5 78 -18 124 -29 91 -23 125 -23 74 -1 -17 8 -30 17 -27 21 6 10 -34 17
-78 14 -23 -1 -39 3 -42 11 -3 8 -26 19 -51 25 -40 10 -63 29 -34 29 5 0 7 5
4 10 -3 6 -23 10 -43 9 -28 0 -32 -2 -17 -8 18 -7 17 -8 -7 -13 -14 -3 -34 -1
-43 4 -9 6 -22 8 -28 5 -9 -3 -11 7 -8 36 2 30 0 38 -9 32 -9 -5 -11 -4 -6 3
4 7 1 12 -8 12 -9 0 -15 -3 -14 -7 2 -5 -6 -18 -16 -29 -16 -19 -23 -20 -55
-12 -20 5 -43 16 -51 24 -13 13 -13 14 3 8 10 -3 29 1 44 12 29 18 105 21 111
3 8 -21 212 -5 212 17 0 17 27 19 32 3 2 -6 13 -9 23 -6 19 5 19 5 -2 12 -32
10 -28 38 7 53 17 8 30 20 30 28 0 8 10 14 25 14 29 0 35 -26 8 -33 -10 -3 0
-5 22 -4 36 2 40 5 43 30 2 15 -1 27 -6 27 -5 0 -12 8 -15 19 -3 14 0 17 14
14 11 -3 21 1 25 11 3 9 15 16 25 16 14 0 19 7 19 25 0 14 5 25 10 25 6 0 10
6 10 14 0 21 -71 8 -88 -16 -13 -18 -79 -58 -69 -41 3 5 2 15 -4 23 -6 11 -9
5 -9 -21 0 -31 -5 -38 -36 -53 -33 -15 -39 -15 -60 -2 -12 9 -30 13 -38 10 -9
-3 -16 -1 -16 4 0 6 10 12 22 14 17 2 23 9 22 26 -1 21 11 27 44 23 6 -1 12 3
12 9 0 5 -9 10 -21 10 -11 0 -18 4 -15 9 13 21 -31 36 -123 42 -57 4 -97 11
-99 18 -2 6 -14 11 -26 11 -12 0 -28 6 -35 12 -11 11 -14 11 -18 1 -6 -18 -29
-16 -58 3 -22 14 -25 15 -25 1 0 -8 18 -24 40 -34 29 -13 40 -24 40 -40 0 -20
5 -23 40 -23 22 0 40 -4 40 -10 0 -5 -16 -10 -36 -10 -19 0 -45 -5 -57 -12
-33 -17 -67 -57 -67 -79 0 -16 -7 -19 -41 -19 -49 0 -83 16 -75 36 4 10 -2 14
-18 14 -16 0 -26 7 -30 23 l-7 22 -11 -22 c-8 -17 -20 -23 -45 -23 -18 0 -33
-4 -33 -10 0 -5 -9 -10 -20 -10 -11 0 -20 3 -20 8 0 11 -32 29 -68 37 -24 5
-32 3 -32 -7 0 -14 -52 -38 -83 -38 -9 0 -22 9 -29 20 -7 11 -21 20 -30 20
-10 0 -18 5 -18 10 0 6 -13 10 -30 10 -16 0 -30 4 -30 9 0 12 28 23 75 27 57
5 137 26 160 41 26 17 105 17 131 -1 32 -23 80 -23 104 -1 11 10 18 25 16 32
-4 10 7 13 39 13 l45 0 0 40 c0 33 3 40 20 40 11 0 20 2 20 4 0 16 -44 76 -56
76 -8 0 -14 10 -14 25 0 15 -6 25 -14 25 -7 0 -19 7 -26 15 -7 8 -25 15 -40
15 -15 0 -33 -7 -40 -15 -7 -8 -17 -15 -22 -15 -5 0 -19 -11 -32 -25 -13 -14
-33 -25 -45 -25 -14 0 -21 -6 -21 -20 0 -15 -7 -20 -27 -20 -38 0 -133 23
-133 32 0 5 -7 8 -15 8 -8 0 -15 4 -15 9 0 19 -41 23 -65 7 -13 -9 -33 -16
-45 -16 -11 0 -20 -4 -20 -10 0 -6 -33 -10 -80 -10 -64 0 -80 -3 -80 -15 0
-11 -11 -15 -40 -15 -29 0 -40 -4 -40 -15 0 -14 -43 -21 -107 -15 -48 3 -17
-36 36 -46 33 -7 52 -25 33 -32 -7 -2 -12 -10 -12 -18 0 -8 -7 -14 -15 -14 -8
0 -15 -5 -15 -11 0 -7 -14 -8 -40 -4 -38 6 -40 6 -40 -19 0 -18 5 -26 17 -26
9 0 14 -2 11 -5 -12 -12 -104 17 -120 38 -13 17 -27 22 -65 22 l-48 0 -3 58
c-2 42 -7 57 -17 57 -9 0 -15 -10 -15 -24 0 -26 -26 -35 -123 -41 -26 -1 -51
-5 -54 -9 -10 -9 -43 -7 -43 3 0 13 -62 40 -117 50 -26 5 -57 13 -67 17 -14 5
-17 4 -12 -4 4 -7 1 -12 -8 -12 -8 0 -16 4 -18 9 -3 10 -43 20 -103 26 -61 7
-125 28 -125 41 0 16 -36 19 -45 4 -8 -13 -35 -13 -35 -1 0 5 8 12 17 14 10 3
-7 3 -37 1 -30 -2 -49 -1 -42 2 6 3 12 14 12 25 0 16 -7 19 -40 19 -29 0 -40
4 -40 15 0 11 -11 15 -40 15 l-40 0 0 40 c0 38 1 40 33 41 l32 1 -28 10 c-22
8 -26 13 -16 24 6 8 19 14 29 14 19 0 38 32 22 38 -6 2 -8 12 -5 22 6 22 -32
36 -66 25 -20 -6 -60 9 -72 27 -3 4 -31 9 -62 9 -54 2 -57 3 -75 38 -16 29
-25 36 -46 34 -24 -2 -26 1 -26 36 0 29 5 40 21 47 21 10 21 10 -3 21 -12 6
-31 14 -40 17 -30 9 -20 40 22 66 22 14 40 30 40 37 0 7 4 13 10 13 5 0 9 -6
7 -12 -3 -20 79 -15 101 5 12 11 36 17 69 17 l51 0 3 43 4 42 -39 -4 c-21 -2
-41 1 -45 6 -3 6 -23 8 -43 5 -34 -4 -37 -7 -40 -41 l-3 -36 -55 -1 c-30 0
-65 -6 -78 -13 -16 -9 -22 -9 -22 0 0 8 -4 8 -12 2 -7 -6 -25 -9 -40 -8 -17 1
-28 -3 -28 -11 0 -7 -9 -16 -20 -19 -11 -3 -25 -15 -30 -26 -9 -17 -22 -19
-100 -19 -55 0 -90 4 -90 10 0 6 17 9 37 8 67 -4 123 2 123 12 0 6 -24 10 -52
10 -54 0 -126 32 -96 43 10 3 10 9 2 23 -9 15 -21 18 -50 16 -22 -2 -41 -8
-42 -13 -2 -5 -10 -9 -17 -9 -8 0 -26 -5 -40 -12 l-25 -11 0 -216 0 -216 223
-54 c122 -29 233 -57 247 -62 14 -4 68 -18 120 -30 111 -26 134 -35 126 -55
-7 -19 3 -18 25 2 14 13 24 14 51 5 18 -6 96 -26 173 -45 217 -53 345 -85 400
-101 65 -19 170 -46 380 -100 94 -24 206 -53 250 -66 44 -12 100 -25 123 -30
66 -13 122 -31 122 -40 0 -6 -132 -85 -165 -98 -9 -4 -201 -111 -235 -131 -55
-33 -453 -258 -645 -365 -126 -71 -277 -155 -335 -188 -58 -33 -179 -102 -270
-153 -359 -200 -476 -266 -488 -276 -12 -10 -48 -7 -84 7 -17 7 -18 -139 -18
-2969 l0 -2976 594 0 595 0 4 43 4 42 1 -42 c2 -36 5 -43 22 -43 17 0 20 7 20
40 l0 40 60 0 60 0 0 40 0 40 120 0 120 0 0 40 0 40 40 0 40 0 0 -40 0 -40 40
0 c33 0 40 3 40 20 0 18 7 20 80 20 64 0 80 3 80 15 0 11 11 15 40 15 29 0 40
-4 40 -15 0 -11 11 -15 40 -15 34 0 40 3 40 21 0 19 5 20 78 17 42 -1 114 -2
160 0 l82 2 0 40 c0 27 4 40 13 39 44 -6 57 1 57 31 0 20 -5 30 -15 30 -8 0
-15 4 -15 10 0 6 23 7 60 3 60 -6 60 -6 60 21 0 25 3 26 48 26 36 0 54 5 67
20 9 10 20 19 24 18 3 0 63 0 134 1 104 1 127 4 127 16 0 8 11 25 23 38 23 22
30 23 120 19 l97 -4 0 26 c0 25 3 26 50 26 39 0 53 4 62 20 13 21 48 28 48 10
0 -5 18 -10 40 -10 22 0 40 5 40 10 0 6 18 10 40 10 33 0 40 3 40 20 0 17 7
20 40 20 29 0 40 4 40 15 0 12 17 15 83 17 63 1 72 2 39 7 l-42 6 37 29 c23
19 38 25 41 18 2 -8 30 -12 83 -12 72 0 79 -2 79 -20 0 -17 7 -20 40 -20 32 0
40 4 40 18 0 9 9 23 20 30 11 7 20 18 20 26 0 21 30 43 39 28 5 -9 18 -4 46
18 l38 30 161 2 c88 1 133 3 98 5 l-62 4 0 39 c0 33 -3 40 -20 40 -33 0 -22
26 16 38 28 8 40 8 50 -1 36 -33 46 -37 79 -37 34 0 35 1 35 40 0 33 3 40 20
40 17 0 20 -7 20 -45 l0 -45 39 0 c22 0 41 -5 43 -10 2 -7 11 -5 23 4 20 15
20 15 -2 16 -16 0 -23 6 -23 19 0 16 11 20 80 26 44 4 80 11 80 16 0 5 18 9
40 9 29 0 40 -4 40 -15 0 -18 12 -19 28 -3 18 18 15 28 -10 28 -20 0 -19 3 12
30 44 37 50 37 50 0 0 -33 11 -38 30 -15 8 10 31 15 71 15 l59 0 0 -35 c0 -39
12 -45 33 -16 11 17 21 19 70 14 31 -3 57 -9 57 -13 0 -4 54 -13 120 -20 88
-9 120 -17 120 -26 0 -10 13 -14 40 -14 22 0 40 5 40 10 0 6 18 10 40 10 22 0
40 -4 40 -10 0 -5 17 -10 38 -10 27 0 48 9 81 35 38 31 51 35 101 35 31 0 85
3 119 6 l61 7 0 38 c0 39 0 39 -40 39 l-40 0 0 40 c0 30 4 40 16 40 8 0 22 6
29 14 14 13 182 32 193 22 3 -3 -13 -6 -36 -6 -31 0 -42 -4 -42 -15 0 -9 9
-15 24 -15 13 0 26 -7 30 -15 7 -19 53 -19 63 0 8 13 27 12 163 -5 85 -11 183
-20 218 -20 55 0 62 -2 62 -20 0 -19 7 -20 120 -20 99 0 120 -3 120 -15 0 -9
6 -12 15 -9 8 4 12 10 9 15 -3 5 0 9 5 9 6 0 11 18 11 40 l0 40 100 0 c93 0
100 1 100 20 0 17 7 20 40 20 l40 0 0 -40 c0 -40 0 -40 39 -40 28 0 40 -5 43
-16 2 -13 11 -10 42 15 36 29 45 31 117 31 64 0 79 -3 79 -15 0 -12 20 -15
120 -15 100 0 120 3 120 15 0 12 14 15 69 15 38 0 83 3 100 6 29 6 31 9 31 48
0 39 13 66 32 66 4 0 8 -25 8 -55 l0 -55 34 0 c33 0 35 2 38 37 l3 38 325 -2
c179 -1 315 1 303 4 -19 4 -23 11 -23 44 0 32 -3 39 -20 39 -13 0 -20 7 -20
20 0 18 7 20 80 20 47 0 80 -4 80 -10 0 -5 18 -10 40 -10 22 0 40 -4 40 -9 0
-10 197 -21 268 -14 42 5 52 9 52 24 0 15 8 19 40 19 33 0 40 -3 40 -20 0 -18
7 -20 59 -20 32 0 86 -3 120 -6 l61 -7 0 48 0 48 117 -6 c66 -4 119 -11 121
-17 4 -12 79 -13 84 -1 2 5 38 12 81 16 l77 7 0 -41 0 -41 40 0 c32 0 40 4 40
18 0 9 9 23 20 30 25 15 26 29 3 35 -10 2 -1 2 20 0 23 -3 37 -1 37 6 0 6 18
11 40 11 53 0 51 16 -2 25 -24 4 -53 13 -65 21 -12 8 -33 14 -47 14 -14 0 -27
4 -30 9 -3 4 -23 11 -43 14 -21 4 -56 16 -78 28 -22 11 -71 29 -110 39 -38 10
-90 25 -115 33 -25 8 -69 21 -97 28 -29 7 -53 16 -53 21 0 4 -14 8 -30 8 -17
0 -48 9 -70 20 -22 11 -50 20 -64 20 -14 0 -28 5 -31 10 -3 6 -17 10 -31 10
-13 0 -24 4 -24 9 0 5 -15 12 -33 16 -35 7 -76 19 -210 62 -83 26 -109 43 -68
43 33 0 146 -32 153 -43 4 -7 40 -12 85 -13 43 0 87 -5 97 -9 13 -6 21 -4 24
3 2 8 30 12 78 12 59 0 74 -3 74 -15 0 -10 -11 -15 -35 -15 -30 0 -35 -3 -35
-24 0 -20 6 -24 40 -30 22 -3 40 -10 40 -14 0 -4 31 -7 69 -6 66 2 71 4 111
42 39 37 44 39 88 34 26 -3 49 -9 50 -13 2 -5 22 -9 44 -9 27 0 38 -4 35 -12
-3 -9 -26 -12 -80 -10 -67 2 -77 0 -77 -14 0 -15 8 -16 60 -10 33 3 87 9 120
12 51 6 60 4 60 -9 0 -10 6 -14 14 -11 7 3 20 -2 29 -10 9 -9 30 -16 47 -16
29 0 32 3 28 25 -5 22 -2 25 22 25 15 0 40 6 56 14 17 8 48 11 77 9 41 -4 47
-8 47 -28 0 -20 6 -23 57 -28 32 -3 59 -4 62 -1 2 2 -5 14 -17 27 -29 31 -28
33 12 47 31 10 37 9 61 -12 14 -13 36 -26 48 -30 17 -4 13 -6 -16 -7 -23 -1
-45 -9 -57 -21 -16 -16 -17 -20 -5 -20 8 0 15 -4 15 -10 0 -5 18 -10 40 -10
29 0 40 4 40 15 0 13 17 14 118 9 64 -4 131 -12 147 -19 17 -8 44 -15 60 -18
17 -3 62 -14 100 -25 39 -11 96 -23 127 -27 32 -3 60 -11 63 -16 4 -5 22 -9
41 -9 20 0 43 -4 53 -10 12 -6 31 -5 54 2 35 11 37 14 37 55 l0 43 49 0 c48 0
85 -6 222 -36 37 -8 81 -14 98 -14 24 0 31 -4 31 -20 0 -18 7 -20 80 -20 l80
0 0 40 0 40 40 0 c34 0 40 -3 40 -21 0 -21 1 -21 158 -14 86 4 158 11 160 16
2 5 21 9 43 9 38 0 39 -1 39 -35 0 -39 6 -43 26 -17 13 16 15 16 30 -3 11 -14
18 -16 21 -7 6 14 83 17 83 2 0 -5 18 -10 40 -10 28 0 40 -4 40 -14 0 -10 22
-16 80 -21 44 -4 80 -11 80 -16 0 -14 68 -11 73 4 3 6 6 2 6 -10 1 -21 6 -23
59 -23 34 -1 65 -6 76 -15 27 -20 106 -20 106 0 0 12 16 15 80 15 73 0 80 2
80 20 0 17 7 20 40 20 33 0 40 -3 40 -20 0 -17 7 -20 40 -20 l40 0 0 40 0 40
40 0 c40 0 40 0 40 39 l0 38 -66 7 c-36 4 -81 4 -100 0 l-34 -6 0 41 c0 34 3
41 20 41 11 0 20 -6 20 -14 0 -14 79 -26 181 -26 52 0 59 -2 59 -20 0 -17 7
-20 40 -20 l40 0 0 -42 0 -43 202 2 c248 1 229 0 221 19 -5 13 0 15 22 12 16
-2 30 2 32 10 3 7 -5 12 -19 12 -12 0 -31 7 -42 15 -10 7 -44 17 -75 21 -31 4
-65 13 -76 20 -11 7 -50 18 -87 25 -38 7 -68 16 -68 21 0 4 -8 8 -17 8 -10 0
-54 12 -98 26 -44 14 -96 28 -115 31 -19 3 -36 9 -38 14 -2 5 -18 9 -35 9 -18
0 -68 14 -112 30 -44 16 -90 30 -102 30 -12 0 -25 5 -28 10 -3 6 -24 10 -45
10 -21 0 -42 4 -45 10 -3 5 -17 10 -30 10 -13 0 -26 4 -29 9 -3 4 -23 11 -43
15 -21 3 -51 13 -67 21 -15 8 -36 15 -46 15 -9 0 -43 9 -76 21 -32 11 -120 36
-194 55 -74 19 -181 51 -238 70 -57 19 -113 34 -123 34 -11 0 -33 7 -48 15
-16 8 -62 22 -102 31 -41 9 -79 20 -84 24 -6 5 -44 17 -85 28 -41 11 -95 27
-120 35 -25 8 -90 27 -145 42 -55 15 -108 31 -117 36 -10 5 -34 9 -53 9 -19 0
-35 4 -35 9 0 4 -26 16 -57 26 -32 10 -67 23 -78 28 -11 6 -42 13 -70 15 -27
2 -52 8 -55 12 -3 5 -18 12 -33 15 -31 8 -34 22 -9 42 11 8 12 12 3 11 -24 -5
-23 19 1 25 29 8 127 -3 134 -14 3 -5 31 -9 63 -9 48 0 63 -4 85 -25 14 -13
42 -27 61 -31 30 -5 35 -3 35 12 0 23 -42 44 -86 44 -18 0 -36 5 -39 10 -3 6
-21 10 -38 10 -18 1 -50 8 -72 16 -22 9 -74 24 -115 35 -41 11 -83 24 -92 29
-10 6 -29 10 -44 10 -14 0 -34 5 -45 10 -10 6 -38 15 -61 20 -56 12 -260 68
-418 114 -69 21 -183 53 -255 71 -201 53 -302 81 -400 110 -49 15 -155 44
-235 65 -132 34 -297 80 -470 130 -36 11 -110 31 -165 45 -55 14 -131 35 -170
47 -38 11 -101 29 -140 38 -128 33 -569 155 -630 175 -38 13 -39 13 -10 14 17
0 49 -4 73 -9 70 -17 141 -18 135 -4 -2 7 -11 15 -19 18 -13 5 -13 9 0 28 9
12 16 30 16 40 0 10 7 18 15 18 8 0 14 6 13 13 -3 13 22 14 107 4 28 -4 41 -4
30 -1 -102 28 -165 48 -192 60 -17 8 -36 14 -42 14 -7 0 -40 9 -74 19 -83 25
-461 127 -806 217 -52 13 -97 27 -100 29 -3 3 6 13 20 23 13 9 40 30 59 47 19
17 58 48 85 71 155 126 297 243 345 284 30 26 87 74 125 106 274 228 431 371
420 383 -4 3 -12 -2 -19 -12 -17 -23 -25 -22 -19 2 4 16 1 19 -16 14 -12 -3
-21 -9 -21 -13 0 -13 -38 -22 -52 -13 -9 5 -3 9 17 13 26 5 30 9 30 39 0 28
-6 37 -34 52 -36 19 -31 26 23 31 35 4 38 19 25 118 -16 121 -17 140 -4 148
16 10 25 38 15 48 -8 10 -17 158 -25 454 -3 102 -8 240 -11 307 -4 108 -3 122
11 117 8 -3 15 -17 15 -31 0 -18 8 -27 31 -35 19 -6 28 -15 25 -24 -3 -8 0
-11 10 -7 9 3 14 -1 14 -15 0 -11 10 -26 23 -35 22 -15 22 -15 2 -30 -16 -13
-17 -17 -6 -31 16 -19 37 -21 45 -3 3 6 5 -3 3 -20 -3 -25 3 -39 25 -60 15
-15 28 -35 28 -45 0 -10 7 -18 15 -18 9 0 20 -12 26 -27 6 -16 22 -51 35 -78
13 -28 24 -65 24 -83 0 -21 5 -32 15 -32 8 0 12 -6 10 -12 -3 -7 8 -22 25 -33
16 -11 30 -23 30 -27 0 -5 11 -8 25 -8 25 0 37 -30 13 -30 -7 0 -2 -11 12 -23
21 -18 25 -32 25 -75 1 -46 5 -56 30 -77 17 -13 31 -28 31 -34 1 -6 2 -15 3
-21 2 -21 26 -8 100 52 42 34 78 65 81 68 3 3 20 17 39 32 l33 25 77 -19 c42
-11 211 -51 376 -90 165 -38 347 -81 405 -94 58 -14 173 -40 255 -59 145 -32
273 -62 531 -125 128 -32 160 -35 183 -21 10 6 11 13 2 29 -15 27 -14 32 4 32
8 0 15 -4 15 -9 0 -6 16 -4 38 3 48 17 56 54 18 80 -43 28 -30 36 53 36 l78 0
6 68 c4 37 7 90 7 117 0 39 7 60 30 95 16 25 30 53 30 62 0 21 41 53 87 69 56
18 228 7 286 -18 26 -12 50 -30 53 -40 4 -10 19 -46 36 -81 19 -40 27 -70 22
-84 -4 -14 -9 -17 -13 -9 -5 7 -28 12 -52 11 -91 -2 -119 1 -119 11 0 6 7 9
15 5 8 -3 15 -1 15 5 0 6 -10 9 -22 7 -13 -2 -22 -9 -20 -16 3 -16 -26 -15
-43 1 -8 8 -27 12 -51 9 -32 -4 -35 -6 -19 -13 13 -5 -4 -8 -47 -8 -38 -1 -68
-5 -68 -9 0 -5 -17 -13 -37 -18 -33 -8 -39 -14 -44 -44 -4 -19 -7 -26 -8 -16
0 11 -4 17 -7 13 -3 -3 -7 -92 -9 -199 -2 -106 -7 -214 -10 -239 -4 -25 -1
-73 5 -107 7 -39 7 -67 1 -79 -5 -10 -17 -35 -26 -57 -10 -21 -20 -35 -24 -30
-7 10 -81 12 -81 3 0 -4 19 -9 42 -13 23 -4 45 -11 49 -17 9 -16 -44 -120 -59
-114 -7 2 -15 -2 -18 -9 -3 -8 -13 -12 -24 -9 -33 9 -32 -17 2 -32 28 -12 31
-20 6 -16 -5 0 -8 -6 -8 -14 0 -22 13 -18 51 16 29 26 40 30 73 26 48 -7 65
-21 50 -45 -10 -15 -54 -26 -141 -35 -30 -3 -29 -15 2 -27 35 -13 31 -16 -12
-13 -37 3 -36 2 13 -14 61 -21 87 -41 80 -60 -4 -9 -2 -11 6 -7 7 4 24 9 39
11 25 2 27 0 31 -43 l3 -46 -107 4 -107 3 30 -19 c28 -17 28 -19 12 -32 -16
-12 -15 -13 12 -15 17 -1 23 -3 13 -6 -10 -2 -18 -13 -18 -23 0 -11 -12 -31
-26 -45 -14 -14 -25 -28 -23 -30 7 -6 417 -105 462 -111 26 -4 47 -11 47 -16
0 -6 -10 -8 -22 -5 -42 10 -313 56 -368 62 -49 5 -53 4 -37 -8 16 -14 16 -15
-5 -21 -13 -3 -35 -6 -50 -6 -19 0 -28 -5 -28 -16 0 -13 -8 -15 -37 -11 -21 2
-44 6 -52 8 -8 2 -17 -4 -19 -14 -3 -15 0 -18 17 -12 12 3 21 2 21 -3 0 -6 24
-15 53 -22 28 -7 75 -19 104 -28 l52 -15 -30 -28 c-32 -30 -38 -59 -12 -59 9
0 31 -11 49 -25 18 -14 44 -25 57 -25 14 0 30 -7 37 -15 7 -9 19 -14 27 -11 7
3 13 1 13 -4 0 -6 6 -10 13 -10 7 0 30 -16 51 -35 21 -19 47 -35 58 -35 10 0
31 -6 46 -14 15 -7 62 -21 105 -31 42 -9 80 -21 83 -26 3 -5 22 -9 43 -9 20 0
41 -4 46 -9 6 -5 42 -14 80 -21 132 -22 155 -27 161 -33 7 -7 -44 -83 -83
-124 -16 -16 -38 -41 -51 -57 -25 -29 -42 -30 -147 -6 -75 17 -200 39 -295 50
-95 12 -160 23 -212 36 -18 4 -28 2 -28 -5 0 -6 9 -11 20 -11 11 0 20 -4 20
-10 0 -5 14 -10 31 -10 17 0 28 -4 24 -10 -3 -5 -17 -10 -31 -10 -13 0 -24 -5
-24 -10 0 -6 16 -8 40 -4 32 5 39 4 35 -7 -8 -23 11 -41 51 -48 20 -3 39 -12
42 -20 4 -11 -3 -12 -29 -7 -33 6 -169 25 -199 28 -33 3 -134 -5 -117 -9 13
-3 17 -15 17 -49 l0 -44 40 0 c22 0 40 -4 40 -10 0 -5 -7 -10 -17 -10 -29 0
-3 -15 30 -16 18 -1 52 -7 77 -14 25 -6 68 -16 97 -21 29 -6 52 -14 52 -17 -6
-39 3 -82 16 -82 11 0 15 -11 15 -40 0 -36 3 -40 25 -40 20 0 25 -5 25 -25 0
-14 7 -28 15 -31 8 -4 15 -10 15 -15 0 -5 -7 -9 -15 -9 -8 0 -15 -4 -15 -10 0
-5 7 -10 15 -10 28 0 65 -24 65 -42 0 -10 7 -18 16 -18 8 0 22 -6 29 -12 37
-34 47 -38 80 -38 24 0 35 -4 35 -15 0 -12 17 -15 96 -15 89 0 130 -9 145 -33
4 -5 59 -12 123 -15 89 -4 116 -8 116 -18 0 -10 13 -14 40 -14 38 0 40 2 40
30 0 28 3 30 35 30 31 0 36 -3 42 -30 5 -29 7 -30 64 -30 52 0 59 2 59 20 0
11 -4 20 -10 20 -5 0 -10 11 -10 25 0 22 -3 24 -32 18 -21 -4 -29 -3 -25 5 8
11 -101 52 -139 52 -12 0 -24 3 -26 8 -1 4 -36 15 -77 26 -40 10 -106 28 -145
41 -39 12 -125 37 -191 55 -160 43 -185 52 -185 66 0 7 15 28 33 46 17 19 66
72 107 118 41 46 89 98 105 115 23 24 172 187 230 251 39 44 209 228 250 270
28 29 65 71 84 94 35 42 51 47 31 11 -7 -14 -7 -21 0 -21 5 0 10 6 10 13 0 9
12 14 33 14 59 0 92 8 109 25 10 10 18 22 18 27 0 14 30 22 30 8 1 -19 50 42
50 63 0 10 15 27 33 37 18 11 33 28 34 39 2 26 31 121 33 109 1 -5 5 4 9 20 8
34 3 58 -10 49 -12 -7 -11 0 3 31 6 14 14 25 18 25 4 0 30 33 58 73 28 39 79
101 113 137 33 36 68 75 76 88 20 29 39 28 181 -7 64 -17 185 -46 267 -66 83
-19 175 -42 205 -50 30 -8 201 -51 380 -94 179 -44 546 -134 815 -201 270 -67
537 -133 595 -146 58 -14 119 -30 135 -35 31 -9 427 -106 675 -165 192 -45
220 -53 220 -64 0 -8 -171 -282 -213 -340 -19 -27 -81 -124 -163 -254 -27 -44
-65 -96 -84 -115 -19 -20 -34 -40 -35 -44 0 -5 -8 -14 -17 -21 -10 -7 -18 -23
-18 -35 0 -11 -4 -21 -10 -21 -5 0 -10 -9 -10 -20 0 -11 -4 -20 -9 -20 -5 0
-13 -9 -16 -20 -3 -11 -13 -20 -21 -20 -10 0 -14 -12 -14 -38 0 -21 -7 -48
-16 -60 -14 -20 -14 -23 0 -28 12 -5 16 -21 16 -65 l0 -59 40 0 c29 0 40 -4
40 -15 0 -11 11 -15 40 -15 33 0 40 -3 40 -20 0 -17 7 -20 40 -20 37 0 40 2
40 28 0 15 5 33 12 40 9 9 9 12 0 12 -7 0 -12 7 -12 15 0 8 9 15 20 15 11 0
20 -7 20 -15 0 -8 9 -15 20 -15 11 0 20 6 20 14 0 25 45 99 63 104 9 2 17 10
17 17 0 7 6 16 13 18 10 4 10 6 0 6 -26 2 -16 20 47 86 11 12 20 26 20 33 0 7
7 12 16 12 8 0 12 5 9 11 -8 11 42 89 57 89 5 0 7 4 4 8 -3 5 8 22 24 37 l30
29 0 -32 c0 -23 -5 -32 -16 -32 -12 0 -15 -7 -11 -27 6 -34 -55 -120 -83 -115
-10 2 -21 -2 -25 -8 -3 -6 3 -10 14 -10 20 0 20 -1 3 -34 -9 -18 -20 -29 -23
-24 -4 7 -9 7 -13 0 -3 -6 -2 -13 4 -17 6 -4 5 -12 -5 -21 -8 -9 -15 -22 -15
-30 0 -8 -4 -14 -8 -14 -9 0 -42 -64 -42 -82 0 -6 -8 -18 -19 -27 -10 -9 -28
-36 -41 -61 -12 -25 -26 -47 -29 -50 -11 -9 -188 -313 -236 -406 -17 -34 -41
-75 -53 -91 -12 -17 -26 -41 -32 -54 -6 -13 -23 -45 -38 -71 -88 -154 -112
-198 -112 -208 0 -5 -4 -10 -8 -10 -4 0 -19 -25 -32 -55 -13 -30 -28 -55 -32
-55 -4 0 -8 -11 -8 -25 0 -16 -6 -25 -15 -25 -8 0 -15 -7 -15 -15 0 -9 -7 -27
-16 -40 -15 -24 -15 -25 4 -25 12 0 23 9 27 23 l8 22 4 -23 c4 -18 11 -22 44
-22 32 0 39 -3 39 -20 0 -26 16 -26 32 0 9 14 24 20 46 20 19 0 45 9 59 20 16
12 41 20 64 20 32 0 39 -3 39 -20 0 -11 5 -20 12 -20 6 0 9 3 5 6 -6 6 45 54
57 54 3 0 6 -13 6 -30 0 -28 2 -30 40 -30 l40 0 0 -40 0 -40 60 0 60 0 0 40
c0 33 3 40 20 40 17 0 20 7 20 40 0 22 4 40 9 40 5 0 12 18 16 40 6 34 11 40
31 40 17 0 24 6 24 19 0 12 9 21 25 25 14 4 34 15 45 26 29 29 83 55 88 41 2
-6 21 -11 43 -11 53 0 50 -18 -3 -23 l-43 -4 43 -1 c30 -1 42 -6 42 -17 0 -19
13 -19 50 0 17 9 30 11 30 6 0 -6 13 -8 30 -5 23 5 30 3 30 -9 0 -19 -38 -94
-51 -103 -5 -3 -9 -17 -9 -31 0 -13 -8 -37 -19 -51 -10 -15 -22 -42 -26 -61
-4 -20 -14 -35 -26 -38 -20 -6 -23 -22 -13 -61 5 -18 13 -22 45 -22 l39 0 0
-80 0 -80 40 0 c33 0 40 -3 40 -20 0 -17 7 -20 40 -20 33 0 40 3 40 20 0 18 7
20 80 20 l80 0 0 -40 0 -40 160 0 160 0 0 -60 0 -60 40 0 c33 0 40 3 40 20 0
17 7 20 40 20 29 0 40 4 40 15 0 19 14 19 30 -1 11 -12 11 -15 -1 -12 -10 2
-15 -9 -17 -40 l-3 -42 35 0 c30 0 36 -4 37 -22 1 -15 3 -17 6 -7 3 11 20 18
56 23 101 12 97 14 97 -54 l0 -60 40 0 c33 0 40 3 40 20 0 17 7 20 40 20 l40
0 0 -40 c0 -40 0 -40 39 -40 26 0 41 5 45 16 3 8 10 13 15 10 11 -7 2 -100
-10 -104 -5 -2 -9 -39 -9 -83 l0 -79 40 0 c38 0 40 -2 40 -30 0 -28 2 -30 40
-30 l40 0 0 -40 0 -40 46 0 c34 0 53 7 80 27 18 16 34 32 34 36 0 7 37 64 50
77 3 3 10 16 16 30 33 72 44 100 44 114 0 9 6 16 14 16 7 0 17 10 21 23 l8 22
4 -23 c4 -18 11 -22 44 -22 32 0 39 3 39 20 0 17 7 20 40 20 33 0 40 3 40 20
0 15 7 20 29 20 22 0 30 6 35 23 5 20 10 22 51 19 l45 -4 0 -89 0 -89 40 0 40
0 0 50 0 50 40 0 40 0 0 -60 0 -60 40 0 c39 0 40 -1 40 -34 0 -19 6 -37 13
-39 6 -3 -18 -6 -55 -6 -38 -1 -68 -5 -68 -11 0 -19 41 -30 114 -30 69 0 76
-2 76 -20 0 -26 18 -25 46 1 12 12 27 18 33 15 11 -7 3 -107 -9 -116 -4 -3
-10 -22 -14 -43 -4 -20 -10 -37 -15 -37 -6 0 -41 -63 -41 -75 0 -3 234 -5 520
-5 l520 0 0 35 c0 34 1 35 40 35 39 0 40 -1 40 -35 0 -34 1 -35 40 -35 l40 0
0 80 0 80 -40 0 -40 0 0 -40 0 -40 -40 0 -40 0 0 55 0 55 80 0 c64 0 80 -3 80
-15 0 -23 77 -21 84 3 2 9 2 0 -1 -20 -4 -31 -1 -41 18 -58 46 -38 59 -28 59
48 0 64 -2 70 -25 80 -14 7 -32 12 -40 12 -8 0 -15 9 -15 20 0 17 7 20 40 20
l40 0 0 4781 c0 2629 -3 4779 -7 4777 -5 -3 -23 -11 -40 -18 -18 -8 -33 -18
-33 -23 0 -23 -34 -39 -86 -39 -50 -1 -59 3 -85 31 -16 18 -29 36 -29 42 0 5
-7 9 -15 9 -8 0 -19 9 -25 20 -6 11 -16 20 -23 20 -7 0 -23 9 -37 20 -14 11
-41 20 -62 20 -21 0 -38 5 -38 10 0 6 -9 10 -20 10 -11 0 -20 -4 -20 -10z
m-125 -1772 c-10 -37 -28 -71 -52 -101 -13 -16 -23 -35 -23 -43 0 -8 -4 -14
-10 -14 -5 0 -10 -5 -10 -10 0 -6 -31 -62 -70 -126 -38 -64 -70 -118 -70 -120
0 -2 -18 -33 -40 -69 -22 -36 -40 -68 -40 -71 0 -3 -15 -29 -33 -57 -19 -29
-47 -73 -63 -99 -16 -26 -36 -47 -45 -48 -25 0 -31 41 -10 65 10 11 26 34 34
51 17 32 96 155 106 164 10 8 31 44 37 63 4 9 10 17 14 17 4 0 10 8 14 18 6
18 27 54 37 62 4 3 16 24 28 48 12 23 26 42 31 42 6 0 10 9 10 19 0 10 7 21
15 25 8 3 15 14 15 24 0 10 11 29 25 42 14 13 25 29 25 37 0 7 8 22 18 32 9
11 25 31 35 45 22 32 30 33 22 4z m-3720 -1318 c61 -13 117 -29 125 -35 8 -7
20 -11 26 -8 15 5 28 -12 69 -92 24 -47 31 -71 24 -76 -7 -4 -9 -11 -5 -17 8
-13 46 -11 46 2 0 5 2 7 5 4 13 -12 -8 -38 -26 -33 -11 4 -19 2 -19 -4 0 -6
12 -11 28 -11 23 0 31 -9 60 -68 18 -37 32 -75 32 -84 0 -10 5 -18 10 -18 6 0
21 -9 33 -21 17 -15 18 -19 5 -14 -10 4 -18 3 -18 -2 0 -17 31 -73 41 -73 5 0
9 -11 9 -25 0 -14 4 -25 9 -25 5 0 13 -10 17 -22 4 -13 19 -41 35 -63 16 -22
35 -57 44 -78 l16 -38 -23 12 c-13 7 -24 11 -26 10 -3 -4 -76 8 -159 26 -40 8
-78 13 -85 10 -7 -2 20 -10 61 -17 70 -12 73 -13 50 -26 -15 -8 -18 -13 -8
-14 8 0 20 5 27 12 8 8 37 5 118 -16 76 -20 109 -25 117 -17 7 7 14 7 24 -1
17 -14 93 -21 93 -9 0 5 3 18 7 28 6 17 6 17 -15 0 -11 -11 -26 -16 -32 -12
-5 3 -21 8 -35 11 -72 13 -97 29 -111 69 -7 21 -11 41 -9 43 5 5 268 -49 277
-57 10 -9 -33 -69 -54 -77 -12 -3 -18 -16 -18 -36 l0 -30 -82 7 c-51 4 -79 3
-73 -2 14 -13 102 -33 152 -35 37 -1 45 -5 55 -30 13 -28 30 -38 27 -15 -1 6
-1 28 0 47 1 36 1 36 51 38 28 1 50 0 50 -2 0 -24 -17 -36 -51 -36 -46 0 -50
-14 -11 -33 74 -38 114 -25 90 28 -9 19 -9 28 0 37 7 7 12 22 12 33 0 25 14
33 125 70 79 26 180 34 173 14 -2 -7 -33 -20 -68 -30 -183 -51 -161 -43 -164
-61 -6 -28 -25 -64 -40 -77 -9 -7 -16 -23 -16 -34 0 -11 -8 -26 -17 -33 -17
-12 -17 -13 2 -8 27 7 64 -21 49 -36 -9 -9 -37 -6 -115 10 -117 25 -119 26
-119 46 0 24 -19 16 -26 -11 -4 -14 -8 -24 -11 -21 -2 2 0 20 5 40 6 20 9 36
7 36 -2 0 -16 -20 -31 -45 -16 -28 -33 -45 -45 -45 -16 0 -17 4 -8 27 6 15 15
33 21 40 6 8 8 16 5 19 -3 3 -19 -15 -36 -39 l-31 -45 -57 14 c-49 13 -230 53
-313 70 -14 3 -52 11 -85 19 -91 21 -204 44 -265 55 -30 5 -113 22 -185 38
-71 16 -220 49 -330 73 -110 23 -202 44 -205 46 -2 2 0 10 5 18 12 16 207 258
215 265 3 3 32 39 65 80 33 41 62 77 65 80 3 3 21 25 40 50 19 25 39 50 45 56
5 6 45 55 89 109 l79 97 41 -4 c22 -3 91 -15 151 -28z m-1736 -286 c2 -2 -10
-7 -27 -10 -44 -9 -43 -39 1 -50 l32 -8 -32 -3 c-31 -4 -33 -7 -33 -45 l0 -40
83 5 82 5 -82 -10 -83 -11 0 -33 c0 -33 -1 -34 -40 -34 -29 0 -40 4 -40 15 0
11 -11 15 -39 15 -24 0 -48 8 -65 21 -19 15 -47 23 -91 27 -61 4 -64 6 -59 27
3 13 1 32 -5 43 -9 17 -6 21 22 32 17 7 46 23 63 36 17 12 46 24 65 27 36 4
241 -3 248 -9z m2501 -200 c102 -20 204 -38 228 -41 48 -6 53 -20 18 -52 -22
-20 -27 -21 -66 -11 -24 6 -75 17 -114 24 -203 37 -342 70 -353 84 -7 9 -13
22 -13 30 0 20 64 13 300 -34z m1200 -14 c0 -5 -5 -10 -12 -10 -6 0 -3 -6 7
-14 11 -8 24 -12 30 -9 5 3 -2 -6 -17 -19 -24 -22 -68 -39 -207 -79 l-43 -13
58 -13 c90 -21 115 -63 38 -63 -81 0 -163 39 -119 56 8 4 15 10 15 14 0 5 -12
2 -27 -6 -16 -7 -33 -14 -40 -14 -6 0 -53 -14 -105 -31 -79 -25 -102 -29 -151
-24 -33 4 -56 12 -55 17 2 6 40 24 83 39 44 16 116 42 160 58 44 16 113 39
153 51 39 13 72 27 72 31 0 5 20 8 44 7 24 -2 42 -6 39 -10 -2 -5 7 -8 21 -8
16 0 26 6 26 15 0 8 -5 15 -11 15 -5 0 -7 5 -4 10 3 6 15 10 26 10 10 0 19 -4
19 -10z m-860 -25 c-11 -13 -9 -15 13 -15 27 0 44 -16 44 -41 0 -10 -7 -15
-18 -12 -11 3 -24 -5 -36 -24 -26 -40 -55 -63 -74 -57 -11 3 -24 -7 -39 -31
-12 -19 -28 -35 -36 -35 -8 0 -22 -9 -31 -20 -10 -11 -21 -20 -25 -20 -12 0
-10 38 3 63 16 31 81 87 100 87 9 0 19 7 23 15 3 8 1 15 -4 15 -6 0 -10 -4
-10 -10 0 -5 -5 -10 -12 -10 -6 0 6 17 28 38 21 22 45 46 52 55 7 10 18 17 24
17 7 0 6 -5 -2 -15z m-2980 -55 l0 -60 39 0 39 0 4 -65 c1 -35 1 -74 -2 -85
-5 -19 -6 -19 -27 -5 -13 9 -23 22 -23 28 0 15 -102 10 -112 -6 -4 -7 -11 -7
-22 2 -10 9 -28 11 -49 7 -17 -3 -27 -2 -20 2 8 5 12 36 12 85 0 66 -3 77 -17
77 -27 0 -45 36 -30 60 11 18 24 20 110 20 l98 0 0 -60z m2542 34 c265 -51
303 -60 303 -74 0 -35 -32 -34 -212 4 -230 49 -257 57 -261 79 -5 23 11 22
170 -9z m-1907 -104 c99 -22 203 -44 230 -50 28 -6 111 -24 185 -40 74 -16
158 -34 185 -40 28 -6 100 -22 160 -36 61 -14 171 -38 245 -54 74 -16 218 -47
320 -70 102 -22 277 -61 390 -85 113 -25 288 -63 390 -85 102 -22 235 -51 295
-64 61 -14 199 -44 308 -67 168 -36 197 -46 197 -61 0 -10 -4 -18 -10 -18 -5
0 -10 -4 -10 -10 0 -9 -39 -70 -225 -355 -51 -77 -117 -179 -148 -227 -127
-196 -169 -258 -176 -258 -11 0 -447 98 -511 115 -30 8 -127 31 -215 51 -236
54 -287 65 -580 134 -71 17 -159 37 -195 45 -199 44 -337 76 -430 98 -58 14
-172 41 -255 60 -82 20 -217 51 -300 71 -82 19 -211 49 -285 65 -74 17 -182
42 -240 56 -58 14 -142 32 -187 42 -46 9 -83 20 -83 24 0 8 82 104 224 264 34
39 73 83 87 100 13 16 44 52 69 80 26 27 59 66 74 85 33 40 132 152 193 219
23 25 43 50 43 55 0 10 22 6 255 -44z m2941 -229 c30 5 34 -1 19 -36 -8 -20
-11 -34 -7 -31 12 7 160 11 167 4 7 -7 -26 -68 -61 -115 -13 -17 -24 -34 -24
-37 0 -3 -16 -28 -35 -55 -19 -26 -35 -52 -35 -57 -1 -5 -9 -19 -20 -32 -18
-22 -19 -22 -92 -7 -40 8 -131 31 -203 50 -71 20 -140 37 -152 39 -13 2 -28 8
-35 13 -7 6 -32 14 -55 18 -24 4 -43 11 -43 16 0 5 -10 14 -22 20 -16 7 -2 7
47 2 39 -3 86 -7 105 -7 19 -1 42 -8 50 -18 13 -14 23 -15 73 -6 37 6 57 15
57 24 0 8 5 14 10 14 6 0 10 11 10 24 0 14 5 28 11 31 6 4 8 14 5 22 -3 8 -1
11 4 8 6 -3 10 0 10 8 0 24 35 47 74 49 37 1 50 21 21 32 -26 9 -17 26 14 26
17 0 32 4 36 9 3 6 16 6 34 0 15 -6 32 -9 37 -8z m-5685 -467 c56 -17 109 -57
109 -83 0 -9 13 -43 29 -76 20 -40 28 -69 24 -87 l-5 -27 -22 26 c-21 24 -29
26 -97 25 -41 0 -85 3 -99 8 -40 13 -131 20 -125 10 8 -13 -65 -13 -84 -1 -9
6 -20 3 -33 -9 -19 -17 -58 -17 -58 1 0 5 -5 8 -12 7 -24 -6 -19 33 11 77 17
25 34 57 37 71 6 24 42 49 94 65 45 13 175 10 231 -7z m599 -160 c56 -23 84
-50 100 -98 7 -21 18 -49 25 -63 9 -18 12 -53 9 -116 -5 -99 -14 -130 -14 -51
0 48 -19 104 -20 59 0 -18 -2 -18 -20 5 -10 14 -22 22 -26 18 -3 -4 -19 -1
-35 8 -25 13 -29 13 -29 0 0 -10 -8 -13 -27 -10 -47 8 -55 13 -49 30 6 14 1
16 -36 9 -96 -17 -139 -21 -144 -13 -7 11 -44 10 -44 -1 0 -17 -33 -21 -55 -7
-21 14 -23 13 -34 -10 -6 -14 -11 -40 -11 -59 0 -22 -4 -34 -12 -32 -7 1 -14
-8 -16 -20 -7 -46 -22 -21 -22 36 0 91 12 184 21 169 5 -7 9 -23 9 -36 0 -21
1 -22 16 -8 11 11 14 28 10 58 -4 29 -3 36 3 23 5 -11 6 -24 3 -29 -3 -5 1 -6
7 -1 8 4 11 18 8 33 -9 48 33 87 128 119 53 17 197 10 255 -13z m-999 -286
c-1 -40 -4 -129 -8 -198 -4 -69 -7 -138 -6 -153 0 -32 -20 -31 -25 1 -3 22
-22 31 -22 11 0 -5 -4 -7 -10 -4 -6 3 -6 13 -1 23 23 46 30 100 32 239 1 132
4 152 18 156 9 2 18 2 20 0 2 -1 3 -36 2 -75z m3515 47 c167 -36 415 -97 457
-114 30 -12 116 -77 130 -98 4 -7 27 -13 50 -12 33 0 38 2 22 9 -17 7 -15 9
12 9 25 1 35 -5 45 -26 7 -14 19 -28 26 -31 17 -5 15 29 -3 55 -19 27 -7 36
31 24 16 -5 49 -15 74 -22 25 -7 50 -16 55 -19 6 -4 27 -8 48 -8 28 -1 49 -10
73 -32 23 -20 45 -30 66 -30 24 0 40 -10 70 -42 44 -48 51 -39 8 12 -17 19
-30 38 -30 42 0 4 16 8 35 8 29 0 43 -8 75 -42 22 -24 40 -46 40 -49 0 -9
-119 -65 -169 -80 -23 -7 -41 -16 -41 -21 0 -4 -8 -8 -17 -8 -9 0 -36 -9 -60
-20 -24 -11 -62 -29 -86 -40 -24 -11 -51 -20 -60 -20 -9 0 -17 -4 -17 -8 0 -4
-17 -14 -37 -21 -21 -8 -66 -26 -100 -42 -34 -16 -67 -29 -73 -29 -5 0 -10 -4
-10 -10 0 -5 7 -10 16 -10 36 0 3 -25 -81 -61 -50 -22 -95 -39 -102 -39 -6 0
-13 -3 -15 -8 -1 -4 -21 -15 -43 -24 -104 -42 -231 -101 -245 -113 -20 -17
-80 -16 -80 2 0 17 -3 17 -58 -8 l-47 -22 -160 22 c-88 13 -207 29 -265 37
-58 9 -109 19 -113 24 -5 4 13 20 40 35 26 15 73 44 103 64 30 20 60 38 65 40
8 3 91 57 104 68 3 2 -4 10 -15 18 -17 13 -16 14 18 8 33 -5 50 3 180 85 78
50 177 112 218 138 41 26 125 80 185 119 61 40 114 73 119 73 34 1 22 82 -12
82 -22 0 -212 -123 -225 -145 -4 -8 -12 -15 -18 -15 -12 0 -173 -110 -177
-121 -2 -5 -20 -17 -40 -26 -20 -10 -45 -25 -56 -34 -10 -10 -31 -23 -47 -29
-36 -16 -37 -30 -2 -30 21 0 24 -3 15 -12 -10 -10 -17 -10 -33 0 -18 12 -26
10 -62 -15 -23 -15 -54 -34 -69 -42 -16 -7 -28 -17 -28 -22 0 -5 -5 -9 -11 -9
-6 0 -36 -19 -67 -43 -32 -23 -71 -49 -89 -56 -17 -7 -34 -18 -36 -25 -3 -6
-27 -23 -53 -36 -27 -14 -64 -35 -83 -47 -46 -31 -69 -30 -67 2 0 14 4 25 9
25 4 0 7 7 7 15 0 18 42 109 53 113 4 2 7 15 7 28 0 14 6 27 14 30 8 3 12 12
9 20 -5 13 -8 13 -23 -1 -22 -20 -29 -19 -23 4 4 16 -4 19 -64 25 -37 4 -78 9
-90 13 -17 4 -23 1 -23 -11 0 -12 -10 -16 -39 -16 -42 0 -54 13 -44 49 7 26
-12 33 -132 51 -49 7 -92 14 -94 16 -1 1 9 18 23 37 14 19 26 38 26 43 0 5 20
31 44 58 l44 48 43 -14 c50 -17 60 -34 27 -47 -12 -6 -19 -10 -15 -10 5 -1
-10 -25 -33 -53 l-42 -53 39 -7 c21 -4 46 -7 56 -7 19 -1 24 26 5 31 -8 2 3
19 25 43 36 38 37 28 1 -22 -9 -13 -12 -23 -7 -23 5 0 21 18 35 39 19 30 23
42 14 52 -8 9 -7 10 8 5 15 -5 17 -2 13 15 -3 11 -3 19 -1 16 10 -10 56 46 59
72 2 14 8 25 14 23 12 -2 51 55 51 76 0 8 -18 12 -56 12 -36 0 -53 4 -49 10 4
7 -3 9 -22 4 -26 -6 -27 -5 -13 10 15 15 22 15 100 0 47 -9 114 -23 150 -31
36 -8 79 -17 95 -20 41 -6 75 -24 75 -39 0 -8 7 -11 18 -7 11 4 7 -5 -12 -25
-38 -40 -21 -42 25 -2 19 16 39 33 44 37 9 8 51 46 204 186 40 37 59 47 75 43
11 -3 53 -13 92 -21z m1574 -364 c111 -27 140 -41 136 -66 -2 -11 3 -30 11
-42 9 -14 11 -23 4 -28 -6 -3 -11 -1 -11 4 0 6 -17 11 -37 11 -37 0 -37 -1
-14 -13 35 -17 38 -37 7 -37 -21 0 -28 6 -32 30 -6 27 -10 30 -46 30 -22 0
-48 -5 -59 -10 -18 -10 -18 -12 -3 -42 9 -17 17 -46 19 -64 2 -28 -1 -34 -17
-34 -17 0 -18 5 -12 45 7 49 -1 56 -32 27 -16 -16 -22 -17 -39 -6 -30 19 -28
68 3 72 12 2 22 10 22 18 0 8 6 14 14 14 8 0 16 5 18 11 3 9 10 9 26 0 18 -9
22 -9 22 2 0 8 -12 17 -27 20 -16 3 -32 16 -38 28 -5 12 -18 24 -29 25 -10 1
-23 7 -29 13 -18 18 52 13 143 -8z m-340 -226 c16 -9 36 -29 45 -45 19 -36 19
-40 0 -40 -8 0 -15 5 -15 10 0 6 -4 10 -10 10 -5 0 -10 -9 -10 -19 0 -29 -17
-35 -30 -11 -6 11 -14 19 -18 19 -20 -3 -32 3 -32 16 0 17 -55 21 -65 5 -8
-13 -92 -13 -100 -1 -5 10 -17 9 -62 -5 -14 -4 -23 -2 -23 5 0 6 11 11 24 11
14 0 28 5 31 11 4 6 33 9 68 8 73 -3 117 8 117 27 0 19 43 18 80 -1z m513 -76
c18 -23 18 -23 -3 -31 -18 -6 -20 -13 -15 -42 7 -36 -16 -86 -40 -86 -7 0 -16
-8 -19 -17 -22 -57 -46 -78 -61 -53 -8 13 -25 13 -25 0 0 -6 11 -15 25 -20 23
-9 24 -12 13 -32 -18 -32 -71 -102 -80 -106 -5 -2 -8 -10 -8 -18 0 -8 -5 -20
-10 -27 -6 -7 -25 -34 -44 -62 -26 -39 -39 -49 -57 -47 -12 1 -26 -3 -30 -9
-4 -6 -31 -13 -60 -15 -30 -1 -65 -7 -79 -12 -14 -5 -59 -13 -100 -17 -41 -4
-77 -11 -80 -15 -3 -5 -20 -10 -38 -13 -18 -3 -54 -11 -80 -17 -53 -14 -134
-2 -301 44 -51 14 -103 26 -115 26 -12 0 -31 6 -42 14 -12 8 -45 18 -75 22
-89 11 -99 18 -99 64 l0 40 48 0 c26 0 54 -6 61 -12 11 -10 14 -10 18 0 3 6
20 12 39 12 19 0 34 5 34 10 0 14 27 13 32 -2 3 -7 27 -12 61 -12 45 -1 57 -4
57 -17 0 -16 -57 -48 -88 -50 -13 0 -11 -3 6 -12 16 -7 26 -7 30 0 12 17 63
22 69 7 3 -8 13 -14 23 -14 14 0 17 5 12 22 -4 16 -1 20 9 16 8 -3 23 3 33 13
19 19 19 19 0 21 -10 0 -23 2 -29 3 -5 2 -13 3 -18 4 -4 0 13 22 38 48 40 43
44 51 39 84 -5 28 -2 38 10 42 25 10 19 22 -20 40 -51 25 -39 43 27 39 70 -4
91 -34 41 -57 -12 -5 -22 -19 -22 -30 0 -17 7 -21 38 -21 44 -1 92 -39 92 -73
0 -11 5 -21 10 -21 11 0 14 26 11 73 -2 21 2 27 18 27 11 0 23 5 26 10 3 6 -3
10 -14 10 -12 0 -21 5 -21 10 0 6 6 10 14 10 8 0 18 -4 21 -10 3 -5 22 -10 41
-10 19 0 34 5 34 10 0 23 200 5 208 -19 2 -6 21 -11 42 -11 21 0 40 -5 42 -11
3 -9 14 -8 41 2 38 13 44 23 27 49 -8 12 -11 12 -27 -1 -30 -26 -66 -17 -116
27 -50 45 -45 63 12 43 52 -18 69 -7 25 16 -51 28 -53 58 -4 65 19 3 48 2 63
-3 47 -15 42 0 -7 22 -33 14 -46 26 -46 40 0 12 5 21 10 22 116 7 180 -16 180
-65 0 -16 13 -27 49 -44 46 -21 71 -27 71 -18 0 16 -14 36 -26 36 -29 0 -12
20 26 31 32 10 40 17 40 36 0 20 -5 23 -37 25 -56 2 -61 3 -69 10 -17 17 17
33 67 32 42 -1 57 -6 72 -25z m-967 -53 c4 -10 17 -13 45 -10 36 3 39 2 39
-21 0 -23 -3 -25 -42 -22 -24 1 -48 5 -53 9 -6 4 -17 3 -25 -3 -10 -6 -11 -9
-2 -9 7 0 12 -13 12 -30 0 -23 -5 -31 -24 -36 -14 -3 -30 -3 -37 1 -6 4 -15 1
-20 -6 -6 -9 -9 0 -9 29 0 23 -4 42 -10 42 -5 0 -10 7 -10 15 0 8 -5 15 -11
15 -8 0 -8 5 1 15 17 20 31 19 23 -2 -6 -16 -5 -16 10 -4 16 12 63 27 95 30 7
1 15 -5 18 -13z"/>
<path d="M15480 5863 c-43 -7 -80 -25 -80 -39 0 -36 20 -62 54 -68 29 -6 98
-27 231 -71 11 -3 5 2 -14 13 l-34 19 48 7 c72 11 41 30 -46 28 -115 -3 -188
26 -162 66 35 57 223 13 298 -70 47 -52 97 -119 93 -124 -3 -2 -35 10 -72 27
-105 47 -87 30 27 -26 94 -46 177 -110 177 -135 0 -6 -18 6 -40 26 -22 21 -60
49 -83 62 -53 30 -187 85 -194 79 -2 -3 13 -11 34 -17 86 -28 179 -81 221
-127 23 -26 42 -53 42 -59 0 -7 6 -14 13 -17 6 -2 -4 -9 -23 -15 l-35 -10 49
-1 c54 -1 123 -31 158 -68 19 -20 20 -26 8 -48 -7 -14 -11 -26 -9 -28 23 -18
126 -58 174 -67 33 -7 67 -18 75 -24 58 -48 173 -101 264 -122 54 -12 103 -20
110 -18 6 2 30 32 53 67 23 34 85 125 138 202 52 76 91 142 87 145 -11 10
-163 40 -200 40 -20 0 -31 -4 -27 -10 3 -5 1 -10 -4 -10 -6 0 -11 -5 -11 -11
0 -14 -61 -102 -67 -96 -2 3 7 22 21 44 13 21 26 45 28 53 2 8 8 18 13 22 6 4
-46 8 -115 8 -69 0 -141 5 -160 11 -19 5 -74 13 -121 16 -82 5 -87 4 -103 -18
-23 -33 -20 -39 15 -29 37 11 51 -11 25 -39 -9 -10 -16 -21 -16 -26 0 -14 -50
-75 -62 -75 -6 0 -19 6 -27 14 -9 7 -27 17 -41 21 -21 6 -19 2 12 -21 39 -30
47 -44 26 -44 -16 1 -117 90 -102 90 5 0 15 -5 22 -12 8 -8 12 -9 12 -1 0 6
-24 20 -52 29 -44 15 -49 19 -28 22 39 6 46 20 14 27 -57 13 -63 16 -70 38 -9
29 -8 30 51 31 38 1 50 5 53 18 5 27 -64 37 -83 12 -13 -18 -22 -10 -137 108
-68 69 -141 138 -163 152 -69 43 -179 63 -265 49z m1089 -417 c108 -21 111
-27 54 -111 -93 -136 -101 -140 -212 -110 -75 20 -81 28 -52 77 34 59 112 158
125 158 6 0 44 -6 85 -14z"/>
<path d="M15293 5717 c-32 -35 -87 -101 -121 -148 -34 -46 -66 -89 -72 -96
-15 -18 -13 -21 20 -28 17 -4 30 -10 30 -15 0 -10 -29 -22 -40 -15 -13 8 -68
-15 -74 -31 -3 -8 -3 -20 0 -28 8 -21 89 -56 153 -67 75 -12 181 -12 181 1 0
6 -27 10 -60 10 -99 0 -190 32 -190 67 0 21 43 43 83 43 43 0 96 -20 134 -50
25 -19 73 -27 86 -14 11 11 -50 64 -73 64 -29 0 -223 40 -230 47 -3 3 1 8 8
10 6 3 12 11 12 18 0 18 75 117 149 197 59 64 63 66 92 56 16 -6 32 -8 35 -5
3 3 -8 8 -25 12 -32 7 -40 20 -18 28 7 4 6 6 -4 6 -9 1 -43 -27 -76 -62z"/>
<path d="M14301 5481 c-52 -40 9 -91 111 -91 71 0 106 13 118 44 5 13 12 26
17 28 4 3 2 3 -4 2 -7 -2 -32 6 -55 16 -57 26 -154 27 -187 1z"/>
<path d="M15795 5388 c-44 -6 -82 -13 -85 -17 -3 -5 -18 -11 -35 -14 -16 -4
-69 -15 -117 -26 -48 -11 -106 -23 -130 -26 -44 -7 -64 -15 -36 -15 24 0 280
40 289 46 12 7 213 34 218 29 2 -3 -1 -11 -7 -18 -22 -27 21 -37 73 -17 22 9
25 13 15 25 -7 8 -27 17 -46 21 -19 3 -34 10 -34 15 0 5 -6 8 -12 8 -7 -1 -49
-6 -93 -11z"/>
<path d="M14529 4908 c-12 -27 -21 -42 -73 -123 -21 -33 -42 -62 -46 -65 -4
-3 -11 -16 -15 -30 -4 -14 -14 -33 -22 -42 -21 -24 -12 -53 17 -54 14 -1 39
-6 55 -11 40 -11 74 -10 77 2 2 6 -12 11 -29 13 -21 2 -33 9 -33 18 0 11 6 13
20 9 11 -4 35 -3 52 0 30 7 31 8 13 21 -10 8 -29 14 -42 14 -14 0 -23 6 -23
16 0 14 7 15 46 9 26 -3 53 -9 60 -12 8 -3 14 -1 14 5 0 13 -29 24 -42 16 -6
-4 -8 2 -6 12 3 15 12 19 46 19 46 0 59 18 15 23 -45 4 -73 12 -73 20 0 4 7
16 15 26 14 18 16 18 56 -8 41 -28 82 -29 60 -2 -14 16 -4 26 26 26 13 0 23 5
23 10 0 6 -30 10 -70 10 -38 0 -70 3 -70 6 0 3 7 18 16 34 23 37 12 60 -26 60
-22 0 -33 -6 -41 -22z"/>
<path d="M15528 4680 c-21 -11 -38 -25 -38 -30 0 -6 -5 -10 -10 -10 -12 0 -73
-41 -78 -52 -2 -5 -12 -8 -23 -8 -35 0 -83 -35 -73 -52 3 -5 -3 -11 -13 -14
-33 -11 -88 -39 -91 -47 -2 -4 -8 -5 -13 -2 -10 7 -149 -64 -149 -76 0 -3 -38
-26 -85 -49 -81 -41 -109 -60 -86 -60 6 0 11 5 11 11 0 11 62 8 128 -7 24 -5
30 -9 20 -15 -13 -9 63 -14 130 -10 19 2 34 -3 37 -11 4 -10 28 -13 96 -13 89
2 108 9 109 40 0 20 68 48 99 42 21 -4 30 -3 28 5 -1 7 20 24 47 39 30 16 43
29 35 32 -8 3 7 6 34 6 27 1 47 -4 47 -10 0 -5 4 -8 10 -4 5 3 7 12 4 20 -4 9
12 22 50 40 31 15 56 31 56 36 0 12 -33 12 -46 -1 -6 -6 -15 -6 -24 0 -13 8
-12 10 3 10 12 0 17 8 17 25 0 14 6 28 14 31 9 3 12 12 9 22 -5 11 -2 14 10 9
25 -10 50 2 37 18 -8 10 1 11 40 9 43 -4 50 -2 50 14 0 17 -7 19 -52 16 -29
-2 -47 -1 -40 2 24 11 11 24 -26 24 -30 0 -43 -7 -67 -35 -17 -19 -37 -35 -46
-35 -9 0 -33 -13 -54 -30 -43 -34 -43 -34 -69 -15 -21 16 -13 35 15 35 10 0
19 6 19 13 0 8 12 19 26 25 14 7 22 17 19 22 -3 6 3 10 14 10 14 0 21 6 21 20
0 15 -7 20 -29 20 -16 0 -41 2 -57 5 -18 3 -43 -3 -66 -15z"/>
<path d="M18314 9907 c-6 -7 -25 -24 -43 -40 -17 -15 -31 -34 -31 -43 0 -17
-49 -63 -67 -64 -7 0 -13 -7 -13 -15 0 -18 -49 -64 -67 -65 -7 0 -13 -8 -13
-18 0 -23 -40 -62 -63 -62 -9 0 -17 -7 -17 -16 0 -9 -9 -27 -19 -41 -36 -45
-10 -63 90 -63 l56 0 1 46 c1 49 19 84 33 63 5 -8 12 -2 22 17 9 16 29 40 46
54 20 16 31 34 31 50 0 30 17 50 42 50 11 0 18 7 18 19 0 10 7 24 15 31 20 17
19 30 -2 30 -15 0 -14 4 6 19 17 13 22 23 16 39 -7 24 -24 28 -41 9z"/>
<path d="M18865 9850 c-3 -5 -19 -10 -36 -10 -16 0 -29 -4 -29 -10 0 -5 -17
-10 -37 -10 -35 0 -40 -4 -58 -42 -11 -23 -33 -49 -50 -59 -16 -10 -34 -22
-40 -26 -5 -5 -18 -12 -28 -16 -11 -4 -21 -16 -24 -27 -3 -11 -10 -20 -15 -20
-5 0 -16 -16 -24 -35 -8 -19 -21 -35 -29 -35 -8 0 -15 -9 -15 -20 0 -11 -6
-20 -12 -20 -10 0 -49 -54 -66 -92 -2 -4 18 -10 45 -14 55 -8 57 -8 143 -24
36 -7 70 -16 75 -20 6 -4 39 -10 75 -13 l65 -6 -24 19 c-13 11 -32 20 -42 20
-10 0 -19 5 -19 10 0 6 -6 10 -13 10 -8 0 -24 9 -37 20 -47 41 -32 179 22 196
12 3 33 17 47 30 14 13 29 24 33 24 5 0 8 9 8 20 0 11 -4 20 -10 20 -5 0 -10
9 -10 20 0 13 7 20 20 20 11 0 20 6 20 13 0 8 11 19 25 25 14 6 25 16 25 22 0
6 10 14 22 19 13 5 17 10 10 15 -6 3 -13 2 -17 -4z"/>
<path d="M15678 9734 c-50 -16 -78 -30 -78 -39 0 -12 -16 -15 -79 -15 -55 0
-81 -4 -84 -12 -3 -10 -11 -10 -39 0 -42 15 -117 16 -154 2 -19 -8 -30 -8 -38
0 -15 15 -26 12 -26 -5 0 -9 11 -20 24 -25 13 -5 36 -21 50 -37 14 -15 26 -22
26 -15 0 7 15 12 42 12 23 0 56 5 73 11 24 9 70 9 194 -3 88 -7 177 -12 196
-10 32 4 35 7 35 38 0 19 -4 42 -10 52 -5 9 -14 29 -20 45 -12 33 -14 33 -112
1z"/>
<path d="M14208 9395 c-3 -39 0 -48 19 -60 35 -23 115 -19 149 7 15 13 25 17
20 10 -10 -17 29 -16 46 1 7 8 19 12 26 9 7 -2 12 5 12 17 0 26 -67 42 -81 20
-7 -11 -9 -11 -9 2 0 24 -44 39 -114 39 l-64 0 -4 -45z"/>
<path d="M560 9110 l0 -70 40 0 c29 0 40 -4 40 -15 0 -11 12 -15 44 -15 26 0
51 6 60 15 8 8 26 15 40 15 24 0 26 4 26 40 l0 40 -45 0 c-43 0 -45 1 -45 30
l0 30 -80 0 -80 0 0 -70z"/>
<path d="M14923 9082 c-35 -3 -43 -7 -43 -23 0 -16 -7 -19 -40 -19 -22 0 -40
-4 -40 -9 0 -5 -36 -12 -80 -16 -76 -7 -80 -8 -80 -31 0 -21 -4 -24 -40 -24
-22 0 -40 -4 -40 -9 0 -5 -36 -12 -80 -16 -76 -7 -80 -8 -80 -31 0 -22 -4 -24
-51 -24 -39 0 -55 -5 -67 -21 -16 -18 -53 -27 -132 -30 -28 -1 -70 20 -70 36
0 24 -76 21 -83 -3 -2 -12 -17 -22 -37 -25 -27 -6 -31 -9 -20 -22 7 -8 23 -15
36 -15 13 0 24 -4 24 -10 0 -5 -18 -10 -40 -10 -22 0 -40 -4 -40 -10 0 -5 -18
-10 -40 -10 -33 0 -40 -3 -40 -20 0 -18 -7 -20 -54 -20 -53 0 -55 -1 -77 -40
-13 -22 -29 -40 -36 -40 -8 0 -25 -7 -38 -16 -18 -12 -44 -15 -109 -12 -48 2
-86 0 -86 -4 0 -4 -72 -6 -161 -5 -88 1 -166 -1 -171 -5 -23 -14 20 -38 64
-37 30 1 57 -6 90 -25 42 -23 57 -26 145 -26 140 1 234 14 251 37 10 13 16 14
19 6 3 -7 9 -13 14 -13 8 0 19 8 70 56 11 10 44 17 90 20 55 3 88 11 127 31
54 28 64 45 35 62 -14 8 -9 10 25 11 23 0 42 5 42 10 0 7 23 10 58 8 31 -1 66
3 77 9 11 5 25 8 32 6 15 -5 73 24 73 37 0 6 18 10 39 10 22 0 41 4 43 10 3 8
44 18 155 37 18 3 38 11 44 19 6 8 18 14 25 14 8 0 14 6 14 13 0 14 80 37 131
37 19 0 29 5 29 15 0 11 11 15 40 15 28 0 40 4 40 14 0 8 9 18 20 21 11 3 25
15 30 26 13 23 27 25 32 3 2 -14 8 -12 36 11 18 15 31 29 29 32 -10 10 -66 18
-104 15z"/>
<path d="M17328 8808 c-9 -7 -24 -31 -34 -52 -10 -22 -36 -56 -58 -75 -68 -61
-115 -115 -105 -122 5 -3 0 -14 -11 -24 -11 -10 -20 -25 -20 -34 0 -9 -13 -22
-30 -29 -23 -11 -30 -20 -30 -43 0 -27 -2 -29 -40 -29 -23 0 -40 -5 -40 -11 0
-6 7 -9 15 -5 8 3 15 0 15 -7 0 -19 -29 -57 -43 -57 -7 0 -21 -13 -30 -30 -19
-32 -37 -39 -37 -15 0 17 -18 19 -40 5 -13 -8 -13 -10 2 -10 9 0 23 -6 30 -13
7 -8 32 -17 55 -20 l43 -7 24 47 c13 27 33 57 45 67 12 11 31 36 43 55 12 20
28 42 36 50 8 8 25 31 38 53 13 21 29 38 34 38 6 0 10 7 10 15 0 9 7 18 15 21
8 4 23 23 32 43 17 36 67 105 110 150 13 13 23 30 23 37 0 17 -31 18 -52 2z"/>
<path d="M7734 8525 c-16 -7 -36 -19 -44 -26 -45 -42 -248 -179 -267 -179 -2
0 -30 -17 -61 -37 -31 -21 -72 -47 -92 -58 -49 -28 -115 -69 -226 -142 -52
-35 -97 -63 -100 -63 -3 0 -31 -18 -62 -39 -48 -33 -424 -280 -588 -386 -25
-16 -94 -59 -153 -95 -58 -36 -126 -80 -151 -99 -25 -18 -52 -36 -60 -39 -8
-3 -19 -11 -25 -18 -5 -6 -37 -26 -70 -44 -33 -18 -72 -42 -86 -54 -31 -25
-31 -25 -174 -118 -60 -40 -112 -74 -115 -77 -8 -10 -122 -84 -160 -106 -20
-11 -76 -48 -125 -83 -50 -34 -133 -89 -185 -122 -52 -33 -100 -63 -106 -67
-5 -4 -17 -12 -26 -18 -8 -5 -26 -17 -39 -26 -13 -9 -49 -33 -79 -53 -30 -19
-66 -44 -80 -55 -14 -10 -101 -70 -195 -131 -93 -62 -174 -117 -180 -122 -15
-15 33 11 92 50 30 19 59 32 68 29 9 -4 15 -1 15 7 0 8 45 44 99 80 90 60 104
66 153 67 39 1 46 3 28 8 -24 7 -24 8 10 19 20 7 51 26 69 43 19 17 60 43 92
59 33 15 76 42 96 58 21 16 58 40 83 52 25 13 61 36 80 51 19 16 38 29 42 29
5 0 27 14 50 30 22 17 47 30 55 30 7 0 13 5 13 10 0 6 5 10 10 10 6 0 20 8 31
18 10 11 32 25 47 33 15 8 54 32 87 55 33 22 82 54 108 70 27 16 59 36 72 44
64 41 164 100 170 100 3 0 36 23 72 50 36 28 70 50 75 50 12 0 111 61 189 118
32 23 63 42 68 42 5 0 15 7 22 16 7 9 22 20 34 25 11 5 47 29 80 54 135 99
324 223 360 235 21 7 49 22 62 34 13 11 59 43 103 71 43 27 122 82 176 121 55
39 122 86 151 103 29 18 119 82 200 143 81 60 158 114 170 118 11 5 24 13 28
19 3 6 37 29 75 51 39 23 70 45 70 49 0 16 -26 19 -56 6z"/>
<path d="M18316 8363 c-3 -3 -26 -5 -52 -5 -53 1 -52 -7 3 -19 87 -19 99 -22
110 -31 7 -6 45 -12 85 -13 40 -2 105 -7 143 -10 l70 -7 -22 20 c-14 14 -36
22 -65 23 -23 1 -56 5 -73 10 -111 30 -189 42 -199 32z"/>
<path d="M2079 8186 c-2 -2 -2 -27 -1 -55 l4 -51 63 0 c70 0 95 6 95 24 0 18
85 56 128 57 34 2 33 2 -13 9 -27 4 -54 3 -60 -1 -5 -5 -19 -9 -32 -9 -13 0
-23 -6 -23 -14 0 -21 -41 -8 -66 20 -15 17 -32 24 -56 24 -19 0 -37 -2 -39 -4z"/>
<path d="M1587 7803 c-12 -3 -16 -11 -12 -23 4 -13 -2 -24 -21 -36 -25 -17
-25 -19 -8 -31 10 -7 26 -13 36 -13 13 0 18 -8 18 -28 0 -24 6 -31 39 -44 22
-9 39 -22 39 -29 -1 -8 0 -33 0 -56 l2 -42 77 0 c43 0 80 3 83 7 10 14 88 52
105 52 15 0 15 2 4 16 -10 12 -25 15 -58 11 -54 -6 -71 8 -71 57 0 20 -5 36
-11 36 -6 0 -18 8 -27 17 -16 16 -17 16 -20 0 -2 -10 -13 -17 -28 -17 -21 0
-24 4 -24 40 0 34 -3 40 -21 40 -12 0 -32 11 -45 25 -23 25 -26 26 -57 18z"/>
<path d="M17284 7635 c-21 -26 -33 -49 -28 -54 9 -8 145 -35 148 -29 1 2 13
21 27 43 14 22 27 44 28 50 2 8 -87 32 -126 34 -6 1 -28 -19 -49 -44z"/>
<path d="M17503 7623 c-4 -10 -17 -32 -30 -50 -30 -39 -47 -32 207 -78 107
-20 209 -40 225 -44 59 -18 105 -20 117 -7 37 38 58 68 58 81 0 8 -2 15 -4 15
-7 0 -260 47 -400 75 -154 30 -165 30 -173 8z"/>
<path d="M625 7474 c-328 -170 -287 -157 -400 -126 -68 19 -204 52 -215 52 -5
0 -10 -4 -10 -8 0 -11 52 -28 127 -43 35 -6 68 -18 74 -25 6 -8 24 -14 40 -14
16 0 29 -5 29 -11 0 -10 -119 -69 -139 -69 -6 0 -21 -11 -35 -24 -14 -12 -40
-27 -58 -32 -19 -6 -34 -17 -36 -28 -3 -14 26 -2 130 52 376 198 404 212 418
212 5 0 10 3 10 8 0 8 10 13 83 48 24 12 48 27 51 33 10 15 9 15 -69 -25z"/>
<path d="M17905 7148 c-71 -6 -331 -11 -577 -11 -246 -1 -436 -5 -421 -9 14
-4 101 -22 194 -39 116 -23 169 -37 169 -46 0 -20 -33 -16 -226 22 -98 19
-179 33 -181 31 -3 -2 6 -7 19 -11 48 -16 399 -185 573 -278 122 -65 237 -127
250 -137 6 -4 32 -19 58 -34 42 -23 46 -24 37 -7 -5 11 -10 37 -10 58 0 61 37
105 128 151 l77 39 -247 48 c-189 37 -248 52 -248 63 0 18 73 12 195 -17 127
-30 315 -64 321 -58 3 3 1 14 -5 25 -18 34 -13 93 12 129 13 20 46 46 81 63
l59 30 -64 -1 c-35 -1 -122 -6 -194 -11z"/>
<path d="M435 6833 c-181 -49 -232 -62 -332 -84 l-103 -22 0 -84 c0 -45 2 -83
5 -83 3 0 24 12 46 26 40 25 79 29 86 8 2 -6 -9 -17 -24 -25 -15 -8 -47 -25
-70 -38 l-43 -25 0 -66 0 -67 53 -6 c93 -11 277 -89 277 -117 0 -20 18 -9 23
13 6 27 27 86 38 109 4 9 22 54 40 100 18 45 36 85 41 86 4 2 8 9 8 16 0 16
54 119 92 175 18 25 32 48 32 51 0 3 10 13 23 23 38 30 26 40 -14 12 -21 -14
-41 -25 -46 -25 -4 0 -62 -29 -127 -65 -92 -50 -126 -64 -145 -59 -29 7 -33
22 -7 30 9 3 24 10 32 15 8 5 51 28 94 51 136 74 141 77 126 76 -8 0 -55 -11
-105 -25z"/>
<path d="M4620 6809 c-8 -5 -30 -9 -47 -9 -34 0 -41 -8 -22 -27 6 -6 8 -17 4
-23 -7 -11 -23 -10 -80 7 -16 4 -18 3 -7 -8 22 -24 13 -29 -53 -29 -65 0 -87
-14 -40 -26 17 -4 25 -13 25 -27 0 -16 -3 -18 -12 -9 -16 16 -47 15 -54 -1 -4
-11 -12 -11 -39 -3 -42 13 -45 22 -8 21 43 0 42 30 0 33 -27 2 -36 -2 -40 -18
-3 -13 -14 -20 -29 -20 -20 -1 -21 -2 -5 -11 9 -5 22 -7 27 -4 6 3 10 2 10 -3
0 -5 16 -12 36 -15 20 -3 113 -27 206 -52 118 -32 174 -43 181 -36 7 7 6 15
-3 26 -11 13 -9 15 13 15 25 0 55 33 49 53 -1 5 11 6 27 2 33 -7 75 23 86 63
6 19 3 22 -22 22 -23 0 -25 -2 -13 -11 12 -9 12 -10 -3 -5 -10 3 -25 6 -33 6
-8 0 -14 7 -14 16 0 13 -6 15 -27 8 -60 -16 -123 0 -123 32 0 8 10 18 22 23
12 4 17 10 12 14 -6 3 -16 2 -24 -4z"/>
<path d="M3248 6106 c-55 -20 -86 -42 -103 -76 -15 -29 -15 -31 7 -40 16 -6
18 -9 6 -9 -9 -1 -23 6 -32 14 -8 8 -27 15 -42 15 -23 0 -25 -2 -13 -16 12
-14 9 -20 -16 -40 -17 -13 -25 -24 -19 -24 6 0 24 12 39 26 l28 26 51 -21 c28
-11 57 -21 64 -21 6 0 12 -4 12 -8 0 -4 17 -14 38 -21 20 -8 84 -36 140 -62
57 -27 106 -49 108 -49 3 0 14 -9 25 -19 l21 -19 -48 -36 c-55 -40 -75 -44
-95 -19 -8 9 -37 26 -65 39 -109 48 -310 147 -324 160 -20 17 -136 32 -126 16
4 -7 -4 -14 -21 -18 -43 -10 -131 -65 -136 -86 -4 -12 2 -23 16 -32 306 -185
319 -191 432 -209 105 -17 263 -35 355 -41 30 -3 63 -7 73 -11 9 -4 34 -4 55
1 35 7 34 8 -33 15 -219 25 -338 42 -403 56 -81 19 -81 18 4 69 40 24 41 24
118 9 188 -36 466 -63 466 -45 0 9 -54 19 -136 25 -165 12 -214 19 -213 29 0
6 24 26 52 44 l52 34 130 -7 c72 -4 128 -5 125 -2 -3 3 -38 7 -78 10 -41 3
-76 8 -80 11 -3 3 2 6 12 6 35 0 4 19 -42 26 -26 3 -58 12 -71 19 -23 12 -22
13 36 48 63 38 79 44 85 28 3 -8 152 -31 202 -31 35 0 6 14 -42 21 l-47 6 57
2 c43 1 56 4 52 14 -3 10 -25 13 -72 13 -57 -1 -67 2 -64 15 1 11 -7 19 -23
23 -14 4 -25 11 -25 16 0 6 -13 10 -30 10 -18 0 -30 5 -30 13 0 8 -12 19 -26
26 -70 32 20 20 154 -21 33 -10 44 -28 17 -28 -8 0 -15 -5 -15 -11 0 -5 5 -7
12 -3 18 11 88 22 82 13 -4 -7 55 -1 64 6 2 2 -12 6 -30 10 -18 4 -35 11 -38
15 -8 13 -539 111 -593 110 -12 -1 -39 -7 -59 -14z m97 -12 c36 -20 81 -45
103 -59 9 -6 56 -32 104 -58 48 -27 90 -52 93 -57 6 -10 -27 -37 -77 -64 l-36
-19 -181 91 c-100 51 -181 87 -181 80 0 -6 -2 -9 -5 -6 -11 11 18 55 48 74 61
37 90 41 132 18z m-334 -246 c41 -23 97 -56 124 -73 28 -17 67 -42 88 -54 20
-12 37 -24 37 -25 0 -7 -111 -76 -122 -76 -7 0 -26 8 -43 18 -16 10 -88 49
-160 87 -71 37 -135 72 -142 77 -17 14 -5 36 36 63 53 37 95 33 182 -17z"/>
<path d="M14910 3530 c0 -6 -6 -10 -12 -9 -7 1 -30 1 -50 0 -38 -1 -38 -2 -38
-42 0 -32 -4 -42 -20 -46 -32 -8 -12 -23 31 -23 28 0 39 -4 39 -15 0 -8 5 -15
10 -15 6 0 10 14 10 30 0 37 26 41 32 6 4 -18 0 -26 -14 -29 -24 -7 -23 -24 1
-32 11 -3 22 -12 25 -20 6 -16 36 -21 36 -6 0 5 -7 11 -15 15 -8 3 -15 12 -15
21 0 16 15 20 24 6 10 -16 57 -19 71 -5 12 12 15 11 20 -6 5 -15 15 -20 42
-20 27 0 34 3 29 15 -3 8 -2 15 3 15 12 0 21 -39 10 -46 -5 -3 -9 -14 -9 -25
0 -15 -7 -19 -34 -19 -19 0 -37 6 -40 13 -3 6 -5 3 -3 -8 2 -18 11 -20 75 -23
67 -3 74 -1 79 18 5 20 23 28 23 10 0 -5 8 -10 17 -10 14 0 14 3 -4 19 -13 12
-29 18 -42 14 -17 -4 -21 -1 -21 18 0 22 -45 79 -63 79 -5 0 -32 24 -60 53
-29 28 -62 58 -74 65 -28 15 -63 16 -63 2z"/>
<path d="M14880 1446 c0 -12 10 -16 40 -16 l40 0 0 -55 0 -55 40 0 40 0 0 -60
0 -60 120 0 c113 0 120 -1 120 -20 0 -17 7 -20 40 -20 33 0 40 3 40 20 0 11 6
20 13 20 7 0 19 16 26 36 7 19 19 38 27 41 27 10 14 30 -28 42 -24 7 -53 17
-66 22 -13 5 -28 6 -34 3 -6 -4 -13 -3 -17 2 -6 9 -156 52 -213 62 -16 2 -28
10 -28 17 0 9 -20 15 -62 17 -35 2 -71 8 -80 12 -13 6 -18 4 -18 -8z"/>
</g>
</svg>
